<svg width="179" height="78" viewBox="0 0 179 78" fill="none" xmlns="http://www.w3.org/2000/svg">
<rect width="179" height="70" rx="6" fill="#61D640"/>
<g clip-path="url(#clip0_1_10289)">
<path d="M142.205 33.6985C142.205 33.6985 142.203 33.6967 142.199 33.6967H142.221L145.614 27.8574C145.741 27.6097 145.808 27.3331 145.808 27.0547C145.808 26.0785 145.018 25.2866 144.04 25.2866C143.463 25.2866 142.922 25.5686 142.593 26.0405L138.963 32.057L138.967 32.0624C138.895 32.0316 138.824 32.0027 138.75 31.9774C137.748 31.5923 136.711 31.2832 135.64 31.0554C135.456 31.0138 135.268 30.9777 135.078 30.9451C134.798 30.8945 134.514 30.8475 134.229 30.8077C133.943 30.7662 133.654 30.7336 133.366 30.7065C133.335 30.7047 133.307 30.6993 133.274 30.6993C133.129 30.6848 132.983 30.6722 132.835 30.6631C132.529 30.6414 132.222 30.627 131.913 30.6197C131.768 30.6143 131.627 30.6125 131.482 30.6125H131.338C131.07 30.6143 130.806 30.6197 130.544 30.6324C130.47 30.6342 130.392 30.6396 130.318 30.645C130.038 30.6577 129.756 30.6794 129.479 30.7047C129.32 30.7192 129.165 30.7354 129.009 30.7553C128.854 30.7716 128.697 30.7933 128.541 30.815C128.06 30.8819 127.585 30.9668 127.117 31.0681C126.807 31.1332 126.502 31.2073 126.196 31.2886C125.891 31.3664 125.591 31.4513 125.292 31.549C125.169 31.5869 125.047 31.6267 124.927 31.6665C124.685 31.7478 124.445 31.8346 124.204 31.9232C124.155 31.9394 124.108 31.9575 124.059 31.9756C123.991 31.9991 123.92 32.028 123.852 32.057L120.221 26.0405C119.892 25.5668 119.352 25.2866 118.775 25.2866C117.799 25.2866 117.007 26.0766 117.007 27.0547C117.007 27.3331 117.074 27.6097 117.201 27.8574L120.594 33.6985C115.387 36.9399 111.717 42.461 111.032 48.9602H151.761C151.079 42.461 147.406 36.9381 142.199 33.7003L142.205 33.6985ZM123.947 41.5951C123.7 42.7702 122.624 43.7211 121.547 43.7211C120.469 43.7211 119.793 42.7702 120.037 41.5951C120.285 40.4182 121.359 39.4673 122.438 39.4673C123.517 39.4673 124.191 40.4182 123.947 41.5951ZM141.297 43.7211C140.216 43.7211 139.173 42.7702 138.961 41.5951C138.75 40.4182 139.457 39.4673 140.534 39.4673C141.612 39.4673 142.658 40.4182 142.87 41.5951C143.081 42.7702 142.378 43.7211 141.297 43.7211Z" fill="white"/>
<path d="M58.5144 36.2818C58.565 41.7902 63.3467 43.6234 63.3992 43.6469C63.3594 43.7752 62.6345 46.2592 60.879 48.8245C59.3623 51.0427 57.7877 53.2519 55.3073 53.2971C52.8685 53.3423 52.0876 51.8526 49.2999 51.8526C46.5122 51.8526 45.6445 53.2519 43.3358 53.3441C40.9423 53.4363 39.1182 50.9469 37.5888 48.7377C34.4648 44.2164 32.0767 35.9672 35.2838 30.3973C36.8765 27.6331 39.7238 25.8813 42.8152 25.8343C45.1672 25.7909 47.3836 27.4162 48.8226 27.4162C50.2617 27.4162 52.9553 25.4601 55.79 25.7475C56.9759 25.7964 60.3078 26.2266 62.4464 29.3578C62.2747 29.4644 58.4728 31.679 58.5144 36.2836M53.9334 22.7574C55.2043 21.2189 56.0594 19.0785 55.8262 16.947C53.9948 17.0193 51.7784 18.1691 50.4641 19.7058C49.2872 21.0671 48.255 23.2473 48.5334 25.3354C50.5762 25.4926 52.6643 24.2977 53.9352 22.7592" fill="white"/>
</g>
<line x1="89.3185" y1="12" x2="89.3185" y2="59" stroke="white" stroke-width="0.637011"/>
<defs>
<clipPath id="clip0_1_10289">
<rect width="118.006" height="62.4479" fill="white" transform="translate(33.7617 7.64404)"/>
</clipPath>
</defs>
</svg>
