<svg width="120" height="52" viewBox="0 0 120 52" fill="none" xmlns="http://www.w3.org/2000/svg">
<rect x="0.5" y="0.5" width="118.043" height="50.7107" rx="25.3554" fill="black"/>
<rect x="0.5" y="0.5" width="118.043" height="50.7107" rx="25.3554" stroke="#434343"/>
<path d="M12.5312 30.5195H15.1094C15.1445 31.9258 16.1641 32.8867 17.6289 32.8867C19.3516 32.8867 20.2891 31.8555 20.2891 29.9219V17.9453H22.9141V29.9336C22.9141 33.2852 20.9453 35.2305 17.6523 35.2305C14.6055 35.2305 12.5312 33.332 12.5312 30.5195ZM33.3789 17.6641C38.2422 17.6641 41.3008 21.0273 41.3008 26.4062C41.3008 31.7852 38.2422 35.1367 33.3789 35.1367C28.5039 35.1367 25.457 31.7852 25.457 26.4062C25.457 21.0273 28.5039 17.6641 33.3789 17.6641ZM33.3789 19.9727C30.168 19.9727 28.1406 22.457 28.1406 26.4062C28.1406 30.3438 30.168 32.8281 33.3789 32.8281C36.5898 32.8281 38.6055 30.3438 38.6055 26.4062C38.6055 22.457 36.5898 19.9727 33.3789 19.9727ZM46.4336 34.8555H43.8086V17.9453H46.4336V34.8555ZM52.1055 34.8555H49.5508V17.9453H51.9297L60.6953 30.4141H60.7891V17.9453H63.3438V34.8555H60.9766L52.2109 22.3984H52.1055V34.8555Z" fill="#61D640"/>
<rect x="78" y="9" width="32.0426" height="33.7107" rx="16.0213" stroke="#61D640" stroke-width="2"/>
<path d="M90.0452 21.3118C90.3139 21.2742 91.2467 21.2232 92.134 21.1814C92.5757 21.1605 93.0002 21.1421 93.3143 21.129C93.4713 21.1224 93.6007 21.1171 93.6908 21.1135L93.7951 21.1093L93.8224 21.1082L93.8285 21.108C94.541 21.0998 95.723 21.5693 96.7775 22.4627C97.7619 23.2967 98.5962 24.468 98.8178 25.8837L96.9551 25.8313C96.9444 25.7559 96.929 25.6638 96.9072 25.5592C96.846 25.2665 96.7334 24.8707 96.5262 24.4618C96.1084 23.6373 95.3039 22.7598 93.7937 22.5769L93.7938 22.5766L93.7829 22.5758C92.9687 22.5139 92.2757 22.6849 91.6898 23.0677C91.1076 23.4481 90.649 24.0259 90.2791 24.7489L90.2791 24.7489L90.2776 24.7519C89.7477 25.8232 89.4726 26.99 89.4607 28.1756C89.4353 28.8368 89.6083 30.1696 90.1656 31.3981C90.7245 32.63 91.6966 33.8098 93.2954 34.04L93.2954 34.0401L93.2999 34.0406C94.6623 34.2113 95.6441 33.4249 96.2779 32.609C96.7921 31.9471 97.1031 31.2354 97.2334 30.9026L98.999 30.9461C97.9586 34.3645 95.1659 35.6209 93.4278 35.4524L93.4278 35.4523L93.4221 35.4519L93.4043 35.6946L90.0452 21.3118Z" fill="#61D640" stroke="#61D640" stroke-width="0.486792"/>
<mask id="path-5-inside-1_1_563" fill="white">
<path d="M92.8735 17.3018L92.1504 16.2175L92.0405 16.0638C91.9415 15.9153 91.6941 16.0532 91.8013 16.2016L92.5243 17.2859L92.6343 17.4397C92.7332 17.5881 92.9807 17.4503 92.8817 17.2991H92.8707L92.8735 17.3018Z"/>
</mask>
<path d="M92.8735 17.3018L92.1504 16.2175L92.0405 16.0638C91.9415 15.9153 91.6941 16.0532 91.8013 16.2016L92.5243 17.2859L92.6343 17.4397C92.7332 17.5881 92.9807 17.4503 92.8817 17.2991H92.8707L92.8735 17.3018Z" fill="#61D640"/>
<path d="M92.8735 17.3018L92.5356 17.6522L93.2785 17.0317L92.8735 17.3018ZM92.1504 16.2175L92.5555 15.9475L92.551 15.9408L92.5464 15.9344L92.1504 16.2175ZM92.0405 16.0638L91.6354 16.3338L91.6399 16.3404L91.6445 16.3469L92.0405 16.0638ZM91.8013 16.2016L92.2063 15.9316L92.2013 15.924L92.196 15.9166L91.8013 16.2016ZM92.5243 17.2859L92.1193 17.556L92.1237 17.5626L92.1284 17.5691L92.5243 17.2859ZM92.6343 17.4397L93.0393 17.1696L93.0349 17.163L93.0302 17.1565L92.6343 17.4397ZM92.8817 17.2991L93.2889 17.0324L93.1448 16.8124H92.8817V17.2991ZM92.8707 17.2991V16.8124H91.6644L92.5328 17.6496L92.8707 17.2991ZM93.2785 17.0317L92.5555 15.9475L91.7454 16.4876L92.4684 17.5719L93.2785 17.0317ZM92.5464 15.9344L92.4364 15.7806L91.6445 16.3469L91.7545 16.5007L92.5464 15.9344ZM92.4455 15.7937C92.2187 15.4535 91.8255 15.4721 91.6036 15.5978C91.4882 15.6632 91.3675 15.78 91.3142 15.9537C91.2554 16.1451 91.2996 16.3383 91.4067 16.4866L92.196 15.9166C92.2495 15.9907 92.2843 16.111 92.2449 16.2394C92.2109 16.3502 92.1381 16.414 92.0836 16.4449C92.0276 16.4766 91.9537 16.4959 91.8699 16.4825C91.7752 16.4675 91.6883 16.413 91.6354 16.3338L92.4455 15.7937ZM91.3963 16.4717L92.1193 17.556L92.9293 17.0158L92.2063 15.9316L91.3963 16.4717ZM92.1284 17.5691L92.2383 17.7228L93.0302 17.1565L92.9203 17.0027L92.1284 17.5691ZM92.2292 17.7097C92.4571 18.0515 92.8508 18.0298 93.0709 17.906C93.1855 17.8416 93.3031 17.7285 93.3596 17.5624C93.4216 17.3799 93.3905 17.1876 93.2889 17.0324L92.4745 17.5659C92.4223 17.4863 92.3974 17.3679 92.4378 17.2491C92.4726 17.1466 92.5408 17.0871 92.5935 17.0575C92.6474 17.0272 92.7202 17.0075 92.8042 17.0207C92.8992 17.0356 92.9864 17.0902 93.0393 17.1696L92.2292 17.7097ZM92.8817 16.8124H92.8707V17.7859H92.8817V16.8124ZM92.5328 17.6496L92.5356 17.6522L93.2113 16.9514L93.2086 16.9487L92.5328 17.6496Z" fill="#61D640" mask="url(#path-5-inside-1_1_563)"/>
<mask id="path-7-inside-2_1_563" fill="white">
<path d="M91.8923 18.4099L91.0703 18.2561L90.9521 18.2349C90.9136 18.2243 90.8724 18.2296 90.8421 18.2482C90.8119 18.2667 90.7817 18.2959 90.7734 18.3303C90.7624 18.3648 90.7734 18.4019 90.7927 18.4337C90.8119 18.4655 90.8421 18.4894 90.8724 18.5L91.6944 18.6538L91.8126 18.6776C91.851 18.6882 91.8923 18.6829 91.9225 18.6644C91.961 18.6458 91.983 18.6166 91.9913 18.5822C92.0022 18.5477 92.0022 18.508 91.9803 18.4761C91.9583 18.4443 91.9308 18.4205 91.8923 18.4099Z"/>
</mask>
<path d="M91.8923 18.4099L91.0703 18.2561L90.9521 18.2349C90.9136 18.2243 90.8724 18.2296 90.8421 18.2482C90.8119 18.2667 90.7817 18.2959 90.7734 18.3303C90.7624 18.3648 90.7734 18.4019 90.7927 18.4337C90.8119 18.4655 90.8421 18.4894 90.8724 18.5L91.6944 18.6538L91.8126 18.6776C91.851 18.6882 91.8923 18.6829 91.9225 18.6644C91.961 18.6458 91.983 18.6166 91.9913 18.5822C92.0022 18.5477 92.0022 18.508 91.9803 18.4761C91.9583 18.4443 91.9308 18.4205 91.8923 18.4099Z" fill="#61D640"/>
<path d="M91.8923 18.4099L92.0216 17.9406L92.0019 17.9351L91.9818 17.9314L91.8923 18.4099ZM91.0703 18.2561L91.1598 17.7776L91.1563 17.777L91.0703 18.2561ZM90.9521 18.2349L90.8228 18.7042L90.8442 18.7101L90.8661 18.714L90.9521 18.2349ZM90.7734 18.3303L91.2372 18.4783L91.2426 18.4611L91.2468 18.4436L90.7734 18.3303ZM90.8724 18.5L90.7113 18.9594L90.7464 18.9717L90.7829 18.9785L90.8724 18.5ZM91.6944 18.6538L91.7907 18.1765L91.7839 18.1753L91.6944 18.6538ZM91.8126 18.6776L91.9419 18.2083L91.9255 18.2038L91.9089 18.2005L91.8126 18.6776ZM91.9225 18.6644L91.7111 18.2259L91.6889 18.2366L91.6679 18.2495L91.9225 18.6644ZM91.9913 18.5822L91.5275 18.4342L91.522 18.4514L91.5178 18.4689L91.9913 18.5822ZM91.9818 17.9314L91.1598 17.7776L90.9808 18.7346L91.8028 18.8884L91.9818 17.9314ZM91.1563 17.777L91.0381 17.7558L90.8661 18.714L90.9843 18.7352L91.1563 17.777ZM91.0814 17.7656C90.9259 17.7228 90.7437 17.7374 90.5875 17.8333L91.0967 18.663C91.0011 18.7218 90.9013 18.7258 90.8228 18.7042L91.0814 17.7656ZM90.5875 17.8333C90.5135 17.8787 90.3525 17.9976 90.3 18.217L91.2468 18.4436C91.2272 18.5259 91.1874 18.5797 91.1634 18.6067C91.1384 18.6347 91.1145 18.6522 91.0967 18.663L90.5875 17.8333ZM90.3097 18.1824C90.2376 18.4081 90.3226 18.5971 90.3761 18.6857L91.2092 18.1818C91.2243 18.2067 91.2872 18.3215 91.2372 18.4783L90.3097 18.1824ZM90.3761 18.6857C90.4522 18.8114 90.5714 18.9103 90.7113 18.9594L91.0335 18.0406C91.0766 18.0557 91.1107 18.0768 91.137 18.0983C91.1637 18.1202 91.1886 18.1478 91.2092 18.1818L90.3761 18.6857ZM90.7829 18.9785L91.6048 19.1323L91.7839 18.1753L90.9619 18.0215L90.7829 18.9785ZM91.598 19.1309L91.7163 19.1548L91.9089 18.2005L91.7907 18.1766L91.598 19.1309ZM91.6833 19.1469C91.8387 19.1898 92.021 19.1751 92.1771 19.0793L91.6679 18.2495C91.7636 18.1908 91.8634 18.1867 91.9419 18.2083L91.6833 19.1469ZM92.1339 19.1028C92.3006 19.0225 92.4215 18.876 92.4647 18.6955L91.5178 18.4689C91.5296 18.4197 91.553 18.3681 91.5908 18.3218C91.6286 18.2755 91.672 18.2447 91.7111 18.2259L92.1339 19.1028ZM92.455 18.7302C92.4947 18.6057 92.5162 18.3953 92.3807 18.1993L91.5798 18.753C91.4883 18.6206 91.5098 18.4897 91.5275 18.4342L92.455 18.7302ZM92.3807 18.1993C92.3127 18.1009 92.1986 17.9893 92.0216 17.9406L91.763 18.8792C91.7182 18.8668 91.6772 18.8456 91.6429 18.8188C91.6102 18.7932 91.5902 18.7679 91.5798 18.753L92.3807 18.1993Z" fill="#61D640" mask="url(#path-7-inside-2_1_563)"/>
<mask id="path-9-inside-3_1_563" fill="white">
<path d="M101.03 22.8612H102.913C102.952 22.8585 102.982 22.8426 103.012 22.8161C103.031 22.7896 103.042 22.7578 103.042 22.7233C103.042 22.6888 103.031 22.6544 103.012 22.6305C102.982 22.604 102.952 22.5908 102.913 22.5854H101.03C100.992 22.5881 100.961 22.604 100.931 22.6305C100.912 22.6544 100.901 22.6888 100.901 22.7233C100.901 22.7578 100.912 22.7922 100.931 22.8161C100.961 22.8426 100.992 22.8559 101.03 22.8612Z"/>
</mask>
<path d="M101.03 22.8612H102.913C102.952 22.8585 102.982 22.8426 103.012 22.8161C103.031 22.7896 103.042 22.7578 103.042 22.7233C103.042 22.6888 103.031 22.6544 103.012 22.6305C102.982 22.604 102.952 22.5908 102.913 22.5854H101.03C100.992 22.5881 100.961 22.604 100.931 22.6305C100.912 22.6544 100.901 22.6888 100.901 22.7233C100.901 22.7578 100.912 22.7922 100.931 22.8161C100.961 22.8426 100.992 22.8559 101.03 22.8612Z" fill="#61D640"/>
<path d="M101.03 22.8612L100.964 23.3434L100.997 23.348H101.03V22.8612ZM102.913 22.8612V23.348H102.93L102.947 23.3468L102.913 22.8612ZM103.012 22.8161L103.333 23.1821L103.374 23.1462L103.406 23.102L103.012 22.8161ZM103.012 22.6305L103.391 22.3249L103.365 22.2922L103.333 22.2645L103.012 22.6305ZM102.913 22.5854L102.98 22.1032L102.947 22.0987H102.913V22.5854ZM101.03 22.5854V22.0987H101.013L100.997 22.0998L101.03 22.5854ZM100.931 22.6305L100.61 22.2645L100.579 22.2922L100.552 22.3249L100.931 22.6305ZM100.931 22.8161L100.552 23.1217L100.579 23.1544L100.61 23.1821L100.931 22.8161ZM101.03 23.348H102.913V22.3744H101.03V23.348ZM102.947 23.3468C103.121 23.3348 103.248 23.2564 103.333 23.1821L102.691 22.45C102.7 22.4425 102.722 22.4242 102.758 22.4073C102.796 22.3893 102.838 22.3784 102.88 22.3755L102.947 23.3468ZM103.406 23.102C103.483 22.9956 103.529 22.8643 103.529 22.7233H102.556C102.556 22.6512 102.579 22.5836 102.618 22.5301L103.406 23.102ZM103.529 22.7233C103.529 22.5962 103.491 22.4487 103.391 22.3249L102.633 22.9361C102.6 22.8953 102.582 22.8552 102.571 22.823C102.561 22.7902 102.556 22.7568 102.556 22.7233H103.529ZM103.333 22.2645C103.229 22.1732 103.11 22.1211 102.98 22.1032L102.847 23.0677C102.828 23.065 102.799 23.0586 102.766 23.0437C102.732 23.0287 102.707 23.0107 102.691 22.9966L103.333 22.2645ZM102.913 22.0987H101.03V23.0722H102.913V22.0987ZM100.997 22.0998C100.822 22.1118 100.695 22.1902 100.61 22.2645L101.252 22.9966C101.243 23.0041 101.221 23.0224 101.185 23.0393C101.147 23.0573 101.105 23.0682 101.064 23.0711L100.997 22.0998ZM100.552 22.3249C100.452 22.4487 100.414 22.5962 100.414 22.7233H101.388C101.388 22.7568 101.382 22.7902 101.372 22.823C101.361 22.8552 101.343 22.8953 101.31 22.9361L100.552 22.3249ZM100.414 22.7233C100.414 22.8504 100.452 22.9979 100.552 23.1217L101.31 22.5105C101.343 22.5513 101.361 22.5914 101.372 22.6236C101.382 22.6564 101.388 22.6898 101.388 22.7233H100.414ZM100.61 23.1821C100.714 23.2734 100.834 23.3255 100.964 23.3434L101.097 22.3789C101.116 22.3816 101.145 22.388 101.178 22.4029C101.211 22.4179 101.236 22.4359 101.252 22.45L100.61 23.1821Z" fill="#61D640" mask="url(#path-9-inside-3_1_563)"/>
<mask id="path-11-inside-4_1_563" fill="white">
<path d="M100.285 24.0831C100.593 24.4039 100.909 24.7035 101.256 24.9792C101.286 25.0031 101.316 25.0163 101.355 25.0163C101.393 25.0163 101.434 25.0031 101.454 24.9792C101.484 24.9527 101.503 24.9182 101.503 24.8811C101.503 24.844 101.484 24.8095 101.454 24.783C101.118 24.5073 100.791 24.2077 100.492 23.887C100.461 23.8631 100.423 23.8499 100.393 23.8499C100.354 23.8499 100.313 23.8658 100.294 23.8896C100.263 23.9161 100.244 23.9479 100.244 23.9851C100.244 24.0222 100.263 24.0566 100.283 24.0805L100.285 24.0831Z"/>
</mask>
<path d="M100.285 24.0831C100.593 24.4039 100.909 24.7035 101.256 24.9792C101.286 25.0031 101.316 25.0163 101.355 25.0163C101.393 25.0163 101.434 25.0031 101.454 24.9792C101.484 24.9527 101.503 24.9182 101.503 24.8811C101.503 24.844 101.484 24.8095 101.454 24.783C101.118 24.5073 100.791 24.2077 100.492 23.887C100.461 23.8631 100.423 23.8499 100.393 23.8499C100.354 23.8499 100.313 23.8658 100.294 23.8896C100.263 23.9161 100.244 23.9479 100.244 23.9851C100.244 24.0222 100.263 24.0566 100.283 24.0805L100.285 24.0831Z" fill="#61D640"/>
<path d="M100.285 24.0831L100.637 23.7461L100.63 23.7393L100.623 23.7327L100.285 24.0831ZM101.256 24.9792L100.953 25.3601L100.954 25.3614L101.256 24.9792ZM101.454 24.9792L101.133 24.6132L101.101 24.6409L101.075 24.6736L101.454 24.9792ZM101.454 24.783L101.775 24.417L101.769 24.4119L101.763 24.407L101.454 24.783ZM100.492 23.887L100.847 23.5547L100.822 23.5277L100.793 23.5048L100.492 23.887ZM100.294 23.8896L100.615 24.2557L100.646 24.2279L100.673 24.1952L100.294 23.8896ZM100.283 24.0805L99.9037 24.3861L99.9228 24.4098L99.9448 24.4309L100.283 24.0805ZM99.9342 24.4202C100.252 24.7518 100.585 25.0672 100.953 25.3601L101.559 24.5983C101.234 24.3398 100.934 24.0561 100.637 23.7461L99.9342 24.4202ZM100.954 25.3614C101.049 25.4361 101.182 25.5031 101.355 25.5031V24.5295C101.394 24.5295 101.437 24.5368 101.479 24.5532C101.519 24.5686 101.545 24.5874 101.557 24.597L100.954 25.3614ZM101.355 25.5031C101.427 25.5031 101.502 25.4913 101.576 25.4648C101.644 25.4403 101.748 25.3895 101.833 25.2848L101.075 24.6736C101.14 24.5927 101.214 24.5605 101.247 24.5486C101.285 24.5347 101.322 24.5295 101.355 24.5295V25.5031ZM101.775 25.3452C101.88 25.2526 101.99 25.0939 101.99 24.8811H101.016C101.016 24.7426 101.088 24.6528 101.133 24.6132L101.775 25.3452ZM101.99 24.8811C101.99 24.6684 101.88 24.5097 101.775 24.417L101.133 25.1491C101.088 25.1094 101.016 25.0196 101.016 24.8811H101.99ZM101.763 24.407C101.441 24.1422 101.13 23.8571 100.847 23.5547L100.136 24.2193C100.453 24.5584 100.796 24.8724 101.145 25.1591L101.763 24.407ZM100.793 23.5048C100.686 23.4207 100.544 23.3631 100.393 23.3631V24.3366C100.341 24.3366 100.301 24.3261 100.275 24.3165C100.247 24.3064 100.218 24.2913 100.19 24.2691L100.793 23.5048ZM100.393 23.3631C100.31 23.3631 100.229 23.3795 100.156 23.4084C100.088 23.4354 99.9929 23.4871 99.9147 23.584L100.673 24.1952C100.614 24.2683 100.549 24.3001 100.516 24.3132C100.478 24.3282 100.437 24.3366 100.393 24.3366V23.3631ZM99.9727 23.5236C99.8772 23.6073 99.7573 23.7619 99.7573 23.9851H100.731C100.731 24.134 100.65 24.225 100.615 24.2557L99.9727 23.5236ZM99.7573 23.9851C99.7573 24.1815 99.8525 24.3226 99.9037 24.3861L100.662 23.7749C100.673 23.7888 100.688 23.8101 100.701 23.8401C100.714 23.87 100.731 23.9199 100.731 23.9851H99.7573ZM99.9448 24.4309L99.9475 24.4336L100.623 23.7327L100.621 23.7301L99.9448 24.4309Z" fill="#61D640" mask="url(#path-11-inside-4_1_563)"/>
<path d="M93.0718 20.0192L94.5096 16.716L94.7185 16.2521H94.4408L95.2051 18.7123L95.315 19.0622C95.326 19.0834 95.3343 19.102 95.3453 19.1179C95.3645 19.1338 95.3838 19.147 95.4058 19.155C95.4278 19.1629 95.4443 19.1656 95.4662 19.1629C95.4965 19.1629 95.5157 19.155 95.535 19.1417L98.4682 17.8666L98.8751 17.6863L98.6579 17.567L98.5699 20.5759L98.559 21.0081C98.559 21.0293 98.5699 21.0505 98.5782 21.069C98.5782 21.0876 98.5974 21.1035 98.6167 21.1168C98.6277 21.13 98.6469 21.138 98.6772 21.1433C98.6964 21.1459 98.7157 21.1459 98.7376 21.1433L101.382 20.2658L101.748 20.1438L101.588 19.9423L100.706 21.1751L99.2985 23.1475L98.9823 23.6008L99.1692 23.5531L97.0882 22.3071L93.7673 20.3214L93.0031 19.8655C92.8546 19.7727 92.7062 20.0086 92.8656 20.1041L94.9467 21.35L98.2676 23.3383L99.0318 23.7943C99.062 23.8102 99.1005 23.8155 99.1418 23.8076C99.172 23.797 99.2022 23.7758 99.2297 23.7466L100.101 22.5139L101.509 20.5388L101.836 20.0855C101.847 20.0616 101.855 20.0351 101.855 20.006C101.855 19.9768 101.844 19.9503 101.825 19.9291C101.806 19.9052 101.786 19.8893 101.756 19.8814C101.726 19.8734 101.696 19.8708 101.668 19.8814L99.0318 20.7589L98.6662 20.8914L98.8449 21.024L98.9328 18.015L98.9438 17.5856C98.9438 17.5617 98.9438 17.5378 98.9246 17.5166C98.9136 17.4954 98.8943 17.4795 98.8751 17.4663C98.8559 17.4557 98.8256 17.4477 98.8064 17.4477C98.7761 17.4477 98.7569 17.453 98.7376 17.4636L95.8044 18.7414L95.3893 18.9217L95.6064 19.0039L94.8422 16.541L94.7322 16.1911C94.7212 16.1646 94.702 16.1381 94.6828 16.1195C94.6525 16.1036 94.6223 16.093 94.5948 16.093C94.5673 16.093 94.5343 16.1036 94.5068 16.1195C94.4876 16.1381 94.4683 16.1619 94.4573 16.1911L93.0196 19.4943L92.8106 19.9582C92.7309 20.1226 93.0086 20.1915 93.0773 20.0325L93.0718 20.0192Z" fill="#61D640" stroke="#61D640" stroke-width="0.3" stroke-linejoin="round"/>
</svg>
