<svg width="131" height="133" viewBox="0 0 131 133" fill="none" xmlns="http://www.w3.org/2000/svg">
<g clip-path="url(#clip0_1_656)">
<path d="M42.4261 128.644C42.0904 128.732 41.7326 128.737 41.3636 128.7L40.2874 128.536C39.5495 128.462 38.9016 128.05 38.4832 127.487L37.8502 126.622C37.6466 126.362 37.4738 126.048 37.385 125.712L37.1851 124.957L34.2479 125.735C32.7793 126.123 31.2935 125.259 30.9048 123.791L30.0164 120.434L24.4989 115.025C23.7844 114.361 23.5179 113.354 23.7573 112.392C23.9968 111.431 24.7447 110.694 25.6678 110.45L29.612 109.406C30.5351 109.162 31.5495 109.432 32.222 110.107L32.2331 110.149L32.264 110.096C32.3739 109.663 32.5898 109.291 32.9119 108.982L21.1649 64.7675C21.1538 64.7255 21.1427 64.6836 21.1316 64.6416L20.3221 60.9047C20.2999 60.8208 20.2777 60.7369 20.2975 60.6419L19.8348 56.8581C19.8126 56.7742 19.8324 56.6792 19.8101 56.5953L19.7362 52.7535C19.714 52.6696 19.7338 52.5746 19.7535 52.4796L20.0486 48.6749C20.0683 48.5798 20.0461 48.4959 20.0659 48.4009L20.73 44.6332C20.7497 44.5382 20.7695 44.4432 20.8003 44.3901L21.8445 40.7015C21.8642 40.6064 21.8951 40.5534 21.9148 40.4583L23.3082 36.9017C23.328 36.8067 23.3588 36.7536 23.4206 36.6475L25.1632 33.223C25.183 33.1279 25.2558 33.0638 25.2866 33.0107L27.3168 29.8243C27.3477 29.7713 27.4094 29.6651 27.4822 29.601L29.8308 26.5997C29.9036 26.5356 29.9653 26.4294 29.9962 26.3764L32.6434 23.6553C32.7162 23.5911 32.7471 23.5381 32.8199 23.4739L35.6707 21.0132C35.7435 20.949 35.8163 20.8849 35.8891 20.8207L38.9967 18.6513C39.0695 18.5871 39.1534 18.5649 39.2262 18.5007L42.4756 16.6978C42.5485 16.6336 42.6324 16.6114 42.7163 16.5892L46.1804 15.0887C46.2644 15.0665 46.3372 15.0023 46.4211 14.9801L50.0272 13.8461C50.0691 13.835 50.1111 13.8239 50.153 13.8128L51.1181 13.5573C51.1601 13.5462 51.202 13.5351 51.244 13.524L54.9389 12.7257C55.0228 12.7035 55.1067 12.6813 55.2018 12.701L58.9546 12.2914C59.0386 12.2692 59.1336 12.289 59.2175 12.2668L62.9864 12.257C63.0703 12.2348 63.1654 12.2546 63.2604 12.2743L67.0342 12.6225C67.1293 12.6422 67.2243 12.662 67.3082 12.6397L71.045 13.3569C71.14 13.3766 71.2351 13.3964 71.2881 13.4272L74.9348 14.4825C75.0299 14.5023 75.0829 14.5331 75.1779 14.5529L76.1837 14.9601L78.6926 15.9574C78.7876 15.9771 78.8518 16.0499 78.9468 16.0697L82.2875 17.8346C82.3825 17.8543 82.4466 17.9271 82.4997 17.958L85.6972 20.0301C85.7613 20.1029 85.8564 20.1227 85.9205 20.1955L88.8909 22.5971C88.9551 22.67 89.0082 22.7008 89.0723 22.7736L91.8045 25.4628C91.8687 25.5356 91.9329 25.6084 91.9859 25.6393L94.4269 28.5852C94.491 28.658 94.5552 28.7308 94.5774 28.8147L96.716 31.9753C96.7801 32.0481 96.8024 32.132 96.8665 32.2048L98.7027 35.5801C98.725 35.6641 98.7891 35.7369 98.8113 35.8208L100.323 39.3269C100.345 39.4108 100.409 39.4836 100.432 39.5676L101.588 43.2575C101.599 43.2995 101.61 43.3415 101.621 43.3834L113.332 87.2929L113.584 87.2262C114.507 86.9819 115.522 87.2522 116.194 87.9273L116.205 87.9692L116.236 87.9162C116.487 86.9968 117.235 86.26 118.158 86.0157L121.766 85.0607C122.689 84.8163 123.704 85.0867 124.387 85.8037C125.071 86.5207 125.338 87.5277 125.045 88.4582L122.937 95.9306L123.814 99.2454C124.203 100.714 123.339 102.2 121.871 102.588L118.136 103.577C117.968 103.621 117.8 103.666 117.663 103.657L117.841 104.328C117.93 104.664 117.946 105.064 117.898 105.391L117.776 106.456C117.69 107.152 117.32 107.789 116.727 108.26L115.862 108.893C115.559 109.108 115.246 109.281 114.91 109.37C115.025 109.294 42.4261 128.644 42.4261 128.644Z" fill="white"/>
<path d="M115.732 104.842L115.61 105.907L114.745 106.54L42.1461 125.889L41.07 125.725L40.4369 124.86L24.186 63.9679L23.3766 60.231L22.9139 56.4473L22.84 52.6055L23.1659 48.7478L23.83 44.9801L24.8742 41.2914L26.2676 37.7348L28.0103 34.3103L28.4533 33.6093L30.0404 31.1239L32.389 28.1227L34.9523 25.4238L37.8032 22.9631L40.9107 20.7937L44.191 18.9377L47.6551 17.4372L51.2612 16.3032L52.2263 16.0478L55.9212 15.2494L59.674 14.8399L63.443 14.8301L67.2168 15.1783L70.9536 15.8954L74.6003 16.9507L75.6061 17.358L78.115 18.3552L81.4556 20.1201L84.6531 22.1922L87.6235 24.5939L90.3557 27.283L92.7966 30.2289L94.9352 33.3895L96.7714 36.7648L97.935 39.465L98.2941 40.3129L99.4503 44.0028L115.732 104.842Z" fill="#00DF3F"/>
<path d="M42.187 126.552L40.6999 126.362L39.8102 125.205L39.7769 125.079L23.5568 64.1344L22.7252 60.3136L22.2823 56.4349L22.2392 52.5401L22.554 48.6403L23.249 44.8196L24.282 41.089L25.6643 37.4904L27.4378 34.0128L29.4989 30.7734L31.8783 27.7191L34.5564 24.9449L37.4801 22.4201L40.6295 20.2395L43.9937 18.3614L47.5418 16.8386L51.1479 15.7046L52.1549 15.4381L55.9337 14.6175L59.7705 14.1857L63.6234 14.1538L67.4392 14.4908L71.2179 15.1969L74.9177 16.283L78.4854 17.7184L81.8791 19.5141L85.0988 21.6702L88.1222 24.1027L90.9075 26.8227L93.4015 29.7994L95.6042 33.0328L97.4516 36.4501L98.9854 40.0401L100.142 43.7301L116.448 104.832L116.247 106.277L115.09 107.167L114.965 107.2L42.187 126.552ZM41.4096 125.141L42.0636 125.237L114.411 105.955L114.931 105.548L115.028 104.893L98.7989 44.0855L97.6649 40.4794L96.1644 37.0152L94.3504 33.7239L92.2229 30.6052L89.8042 27.7433L87.1362 25.1269L84.2188 22.7561L81.0745 20.7148L77.7869 18.9808L74.3253 17.6071L70.7625 16.5297L67.1207 15.8323L63.4 15.515L59.7038 15.4606L56.0349 15.8479L52.393 16.6771L51.428 16.9325L47.9058 18.0443L44.5256 19.5227L41.2762 21.3256L38.1995 23.4419L35.3795 25.8495L32.8162 28.5484L30.5096 31.5385L28.5102 34.6718L26.7984 38.0433L25.4359 41.5469L24.4534 45.1294L23.8091 48.802L23.5449 52.5537L23.6077 56.3535L24.0592 60.0952L24.8576 63.7901L41.0023 124.62L41.4096 125.141Z" fill="#231F20"/>
<path d="M52.7595 19.5885L56.3285 18.8235L59.8605 18.4275L63.3024 18.3696L66.7072 18.6807L70.7513 19.541L75.3952 21.1405L79.6132 23.1671L83.4166 25.6625L86.7942 28.585L89.9719 32.2787L92.6509 36.4636L94.1182 39.8019L95.9173 45.0728L100.469 61.4234L111.422 102.975L111.35 103.891L110.589 104.407L108.952 104.84L108.13 104.789L107.679 104.1L94.1054 52.6464L91.1242 42.5699L89.6014 39.0218L88.1132 36.4524L85.9376 33.6608L83.5238 31.1567L80.9137 28.9291L78.1186 27.0199L75.1803 25.4179L72.1099 24.1652L68.8963 23.2198L65.6458 22.6433L62.716 22.431L59.769 22.4926L56.8047 22.8281L53.8342 23.4796L50.9304 24.3829L48.1882 25.5577L45.5965 26.962L43.1246 28.6489L40.5428 30.769L38.2177 33.1803L36.169 35.7879L34.4078 38.6336L32.9231 41.6756L31.7568 44.9027L30.8978 48.273L30.388 51.7754L30.3656 54.7446L30.7974 58.5814L33.1184 68.8775L46.9952 120.969L46.9434 121.791L46.2547 122.243L44.6183 122.676L43.7014 122.604L43.1855 121.843L31.9716 79.6425L27.8392 63.1808L26.7953 57.71L26.419 54.083L26.6771 49.1207L27.6535 44.3275L29.1432 40.1168L31.2141 36.0666L33.8774 32.2188L37.1639 28.5203L40.253 25.7721L43.0581 23.8174L46.0669 22.1231L49.3324 20.7201L52.7595 19.5885Z" fill="#FFED33"/>
<path d="M54.7559 26.9623L58.9877 26.1565L63.2181 26.0246L66.2231 26.3518L69.2331 27.0368L72.1949 28.0489L75.1616 29.4188L78.538 31.4885L81.4886 33.9852L83.6371 36.335L85.4524 38.9525L87.7106 43.9223L90.0921 51.733L104.418 105.861L104.375 106.546L103.801 106.922L101.577 107.511L101.06 107.423L100.77 107.006L85.5112 49.3535L84.2156 45.4759L82.5361 42.0142L80.4728 38.9684L78.0257 36.3385L74.0162 33.4037L69.27 31.2475L66.3217 30.4564L63.3895 30.0651L59.5898 30.1279L55.7357 30.8336L52.037 32.1268L48.7037 33.9519L46.307 35.7536L44.1362 37.8997L41.173 42.1411L39.1403 46.6751L38.3145 50.1713L38.0281 53.839L38.281 57.6783L39.0731 61.6891L54.4269 119.361L54.3813 119.867L53.9752 120.199L51.7514 120.788L51.0665 120.745L50.6901 120.171L36.3222 66.054L34.5281 58.0879L34.0211 52.6097L34.3038 49.4369L34.9666 46.343L36.2847 42.6716L38.1952 39.2027L40.0958 36.5445L42.1692 34.1998L44.4461 32.1155L46.8959 30.3446L50.6377 28.3665L54.7559 26.9623Z" fill="#FFED33"/>
<path d="M56.6771 34.2213L59.7228 33.6845L62.8068 33.6316L66.0241 34.0821L69.1426 35.0078L72.0674 36.3889L74.7453 38.1944L77.0172 40.332L78.9361 42.8323L80.9525 47.0579L82.6862 52.9298L97.2231 107.855L97.1268 108.509L96.606 108.916L94.55 109.46L93.7701 109.397L93.3295 108.751L77.7622 50.1023L76.875 47.5983L75.6435 45.3201L74.0034 43.1949L72.0832 41.3684L69.936 39.8714L67.5727 38.7458L65.0355 37.9806L62.3883 37.6485L60.0312 37.7336L57.679 38.1766L55.4157 38.9552L53.3251 40.0473L51.1888 41.6454L49.3623 43.5656L47.8653 45.7128L46.7397 48.0761L45.9745 50.6133L45.6424 53.2605L45.6991 55.8496L46.1667 58.4647L61.692 117.124L61.671 117.893L61.0244 118.333L58.9683 118.878L58.3143 118.781L57.907 118.261L54.431 105.127L43.317 63.3047L41.919 57.344L41.581 52.6741L42.0118 49.5519L42.9289 46.5704L44.363 43.6765L46.2216 41.0294L48.4739 38.6822L51.0471 36.6991L53.7226 35.2726L56.6771 34.2213Z" fill="#FFED33"/>
<path d="M58.654 41.6901L60.5755 41.3162L62.5328 41.2472L64.3889 41.4743L66.2277 41.9754L69.356 43.6169L71.9377 46.0765L73.3531 48.7101L74.6956 52.9345L89.7212 109.706L89.6583 110.486L89.0116 110.926L87.2073 111.404L86.3854 111.352L85.9338 110.663L70.3726 51.699L69.3645 49.5862L67.4418 47.5807L64.7553 45.9121L62.0304 45.2864L59.6757 45.5504L57.4988 46.4857L55.4402 48.3775L53.9308 51.1567L53.2409 53.8087L53.4099 56.1436L69.013 115.097L68.9611 115.919L68.2725 116.37L66.4682 116.848L65.6994 116.827L65.2588 116.18L50.2752 59.3978L49.3522 55.0624L49.2795 52.0734L50.3064 48.6587L52.2132 45.6846L53.5325 44.3926L55.0751 43.2659L56.7683 42.3688L58.654 41.6901Z" fill="#FFED33"/>
<path d="M60.5752 48.9491L62.5634 48.827L63.8851 49.2404L65.0969 50.0871L66.2964 51.5656L67.1368 53.7228L82.3894 111.691L82.3042 112.387L81.7414 112.805L79.7274 113.339L79.0425 113.295L78.6661 112.721L63.4468 54.879L62.8903 53.4548L62.1029 52.855L61.6081 52.8513L61.1798 53.0994L60.8342 53.999L61.0551 55.512L76.4003 113.321L76.3571 114.006L75.7832 114.382L73.7691 114.916L73.2743 114.912L72.7078 114.298L57.2343 56.3437L56.9086 54.0951L57.1777 52.228L57.854 50.8816L58.7981 49.8684L60.5752 48.9491Z" fill="#FFED33"/>
<path d="M92.9947 53.0299C94.4928 56.3151 94.3557 59.3596 93.6707 62.3696C93.0079 65.4634 91.8083 68.5647 91.3688 71.8239C91.1614 73.5849 91.6425 79.474 88.4758 78.8754C85.4992 78.3163 85.4734 75.6741 85.4081 73.2219L86.0648 68.9174C84.1481 71.1757 82.9547 73.961 81.4095 76.4353C80.3271 78.1137 79.404 79.8846 77.2085 80.2411C75.0439 80.5447 74.0555 78.3368 74.2518 76.5338C74.6863 72.9167 78.9045 70.3635 79.8339 66.7501C76.5993 68.1001 72.0958 75.1738 68.4454 74.6134C65.9242 74.248 65.4874 71.5799 66.6179 69.5745C68.284 66.709 71.9913 65.2788 74.3979 62.6663C75.5185 61.4718 76.3293 59.9551 76.5231 57.9731C76.8083 54.9792 74.2747 55.2457 72.3113 54.1041C70.0295 52.7774 67.0432 48.4493 69.7508 46.2959C72.5424 44.1203 75.3078 49.9885 77.2429 49.8356C78.5992 49.7011 81.0687 46.3087 83.1309 46.9751C91.4181 37.9122 83.6783 24.7849 75.5533 17.327L78.0622 18.3243L81.4028 20.0891L84.6003 22.1613L87.5707 24.5629L90.3028 27.2521L92.7438 30.198L94.8824 33.3586L96.7186 36.7339L97.8822 39.4341C97.7636 44.584 96.2196 49.4376 92.9947 53.0299Z" fill="black"/>
<path d="M64.0395 75.7794C61.1443 78.0723 53.6893 74.1636 50.2523 74.5794C52.8475 77.2599 57.7765 77.3922 59.9434 80.3207C61.0059 81.7906 61.2391 84.1983 59.2078 85.0053C57.1345 85.8235 55.4561 84.7411 53.6741 83.776C51.0653 82.4011 48.6922 80.5598 45.9094 79.5452L48.6094 82.9613C49.7657 85.1247 51.0084 87.4449 48.74 89.3922C46.2841 91.4789 43.789 86.1229 42.7376 84.695C40.7323 82.0379 38.2086 79.967 36.0601 77.6172C34.0178 75.3292 32.3506 72.7622 32.0274 69.166C29.0237 68.1651 26.4297 66.3373 24.1862 63.9678L23.3767 60.2309L22.9141 56.4472L22.8401 52.6054L23.1661 48.7477L23.8302 44.98L24.8743 41.2913L26.2677 37.7347L28.0104 34.3102L28.4535 33.6092C26.3379 43.5979 27.4198 55.6587 37.6355 58.9714C39.0979 57.3721 42.9223 59.0987 44.1675 58.5446C45.8941 57.7734 45.3945 51.3055 48.8968 51.8153C52.3572 52.3362 51.8609 57.586 50.5342 59.8678C49.3926 61.8312 47.07 62.8949 48.7878 65.3138C49.9477 66.9823 51.3916 67.8573 52.9564 68.3411C56.3514 69.4631 60.2696 68.8301 63.1351 70.4962C65.1096 71.6798 66.0499 74.2147 64.0395 75.7794Z" fill="black"/>
<path d="M46.0298 92.8932L51.5265 91.4384C55.2609 90.45 58.3757 91.8706 59.2974 95.3532C60.2192 98.8358 58.2149 101.611 54.4805 102.6L48.9838 104.054L46.0298 92.8932ZM53.5242 99.6649C55.1187 99.2429 55.9233 98.0422 55.468 96.3218C55.0127 94.6015 53.6774 93.9671 52.1249 94.378L50.5305 94.8L51.9297 100.087L53.5242 99.6649Z" fill="black"/>
<path d="M60.1672 95.0782C59.2788 91.7215 61.267 88.5462 64.9175 87.58C68.526 86.625 71.8555 88.3479 72.755 91.7466C73.6546 95.1453 71.6552 98.2786 68.0048 99.2448C64.3543 100.211 61.0667 98.4769 60.1672 95.0782ZM68.9367 92.7572C68.4814 91.0369 67.0709 90.2877 65.7282 90.6431C64.3855 90.9985 63.5302 92.3473 63.9855 94.0676C64.4408 95.788 65.8514 96.5371 67.1941 96.1817C68.5368 95.8264 69.4032 94.5195 68.9367 92.7572Z" fill="black"/>
<path d="M77.415 84.5864L81.1494 83.598L84.0924 94.7173L80.358 95.7057L77.415 84.5864Z" fill="black"/>
<path d="M86.1539 85.3718L82.881 86.238L82.1147 83.3428L92.3948 80.622L93.1611 83.5172L89.8883 84.3834L92.0649 92.6075L88.3305 93.5958L86.1539 85.3718Z" fill="black"/>
<path d="M36.6358 117.964L37.7019 121.992L33.9675 122.98L32.8903 118.91L26.8286 112.971L30.7728 111.928L34.0603 115.188L35.3464 110.717L38.9549 109.762L36.6358 117.964Z" fill="black"/>
<path d="M39.9704 115.465C39.082 112.108 41.0702 108.933 44.7207 107.967C48.3292 107.011 51.6587 108.734 52.5583 112.133C53.4578 115.532 51.4585 118.665 47.808 119.631C44.1464 120.555 40.8588 118.821 39.9704 115.465ZM48.74 113.144C48.2846 111.423 46.8741 110.674 45.5314 111.03C44.1887 111.385 43.3334 112.734 43.7887 114.454C44.244 116.174 45.6546 116.924 46.9973 116.568C48.34 116.213 49.1953 114.864 48.74 113.144Z" fill="black"/>
<path d="M53.9617 112.345L52.3403 106.219L56.0747 105.231L57.6628 111.231C58.1181 112.952 58.9561 113.403 60.005 113.126C61.054 112.848 61.5588 112.041 61.1035 110.321L59.5154 104.32L63.2079 103.343L64.8292 109.469C65.7177 112.826 64.2034 115.247 60.8046 116.147C57.4059 117.046 54.8502 115.702 53.9617 112.345Z" fill="black"/>
<path d="M71.8792 109.983L70.8722 110.249L71.6163 113.061L67.8399 114.06L64.897 102.941L70.2678 101.519C73.3728 100.698 75.778 101.812 76.4554 104.372C76.8774 105.966 76.4442 107.383 75.2792 108.409L78.5396 111.228L74.5534 112.283L71.8792 109.983ZM70.7712 104.439L69.4285 104.795L70.117 107.396L71.5017 107.03C72.5507 106.752 72.879 106.126 72.668 105.329C72.457 104.532 71.8202 104.162 70.7712 104.439Z" fill="black"/>
<path d="M99.6289 93.7036L99.0052 105.767L94.9771 106.833L91.5959 101.352L91.2847 107.81L87.2566 108.876L80.7471 98.701L84.6073 97.6794L88.2144 103.504L88.5935 96.6243L92.0342 95.7137L95.6635 101.623L96.0203 94.6587L99.6289 93.7036Z" fill="black"/>
<path d="M110.075 100.772L105.837 101.893L105.593 104.023L101.774 105.034L103.699 92.6263L107.391 91.649L115.202 101.48L111.341 102.502L110.075 100.772ZM108.315 98.3638L106.48 95.8412L106.133 98.9413L108.315 98.3638Z" fill="black"/>
<path d="M120.639 95.7307L121.705 99.7588L117.97 100.747L116.893 96.6771L110.832 90.7384L114.776 89.6945L118.063 92.9551L119.349 88.484L122.958 87.5289L120.639 95.7307Z" fill="black"/>
</g>
<defs>
<clipPath id="clip0_1_656">
<rect width="104.908" height="109.075" fill="white" transform="translate(0.755859 26.8418) rotate(-14.8245)"/>
</clipPath>
</defs>
</svg>
