<svg width="40" height="40" viewBox="0 0 40 40" fill="none" xmlns="http://www.w3.org/2000/svg">
<circle cx="20" cy="20" r="20" fill="black"/>
<g clip-path="url(#clip0_1_548)">
<path d="M28.1667 14H12.6159C11.7235 14 11 14.6145 11 15.3725V15.3735C11 16.1316 11.7235 16.7461 12.6159 16.7461H28.1667C29.0591 16.7461 29.7826 16.1316 29.7826 15.3735V15.3725C29.7826 14.6145 29.0591 14 28.1667 14Z" fill="#61D640"/>
<path d="M28.1667 18.6265H12.6159C11.7235 18.6265 11 19.241 11 19.999V20C11 20.758 11.7235 21.3725 12.6159 21.3725H28.1667C29.0591 21.3725 29.7826 20.758 29.7826 20V19.999C29.7826 19.241 29.0591 18.6265 28.1667 18.6265Z" fill="#61D640"/>
<path d="M28.1667 23.2539H12.6159C11.7235 23.2539 11 23.8684 11 24.6264V24.6274C11 25.3855 11.7235 26 12.6159 26H28.1667C29.0591 26 29.7826 25.3855 29.7826 24.6274V24.6264C29.7826 23.8684 29.0591 23.2539 28.1667 23.2539Z" fill="#61D640"/>
</g>
<defs>
<clipPath id="clip0_1_548">
<rect width="18.7826" height="12" fill="white" transform="translate(11 14)"/>
</clipPath>
</defs>
</svg>
