<svg width="1535" height="393" viewBox="0 0 1535 393" fill="none" xmlns="http://www.w3.org/2000/svg">
<path d="M1044.2 2.06975C999.953 4.23675 973.652 36.097 968.414 47.8783V3.94873H904.087V322.524H968.414V117.181C967.591 81.8507 990.766 50.9642 1022.94 50.3196C1087.56 47.0005 1081.96 122.242 1081.96 122.242V322.702H1181.35V119.334C1181.35 119.334 1181.35 -4.63694 1044.19 2.06975" fill="black"/>
<path d="M465.468 278.128V3.8252H366.077V321.536H436.767H465.468H580.957V278.128H465.468Z" fill="black"/>
<path d="M1433.7 305.833L1402.6 270.297C1396.1 273.383 1329.66 301.718 1299.55 259.05C1263.09 207.879 1317.2 138.316 1337.67 120.706C1351.11 107.937 1375.3 92.0822 1401.86 84.1686C1434.2 74.5406 1460.83 79.1626 1480.78 104.494C1515.32 152.936 1470.96 197.826 1470.96 197.826L1503.34 235.131C1550.52 182.616 1535.53 100.695 1512.57 76.5567C1512.57 76.5567 1464.37 28.2931 1455.36 21.0241C1455.36 21.0241 1374.59 -40.3648 1273.24 46.6577C1177.79 126.809 1222.99 223.926 1222.99 223.926C1228.33 235.049 1270.27 288.126 1270.27 288.126C1294.48 320.343 1359.86 345.881 1433.72 305.819" fill="black"/>
<path d="M789.817 3.92126V163.483C790.626 198.813 767.466 229.7 735.295 230.344C670.667 233.663 676.275 158.422 676.275 158.422V3.72925H576.885V161.344C576.885 161.344 576.885 285.301 714.04 278.608C758.292 276.455 784.593 244.594 789.831 232.799V254.606C788.103 315.872 765.025 338.2 705.292 339.503V392.732C858.039 399.479 854.158 276.743 854.158 276.743V3.92126H789.831H789.817Z" fill="black"/>
<path d="M295.086 77.7633L265.576 114.643C269.759 120.486 309.334 180.928 272.638 218.083C227.797 261.861 150.704 221.95 129.778 204.889C114.845 193.903 94.9887 172.878 82.5238 148.122C67.3711 117.99 67.2203 90.9435 88.6397 66.846C130.231 24.3154 182.23 60.0982 182.23 60.0982L213.262 21.6547C153.268 -15.5545 75.2834 13.6039 55.5644 40.4718C55.5644 40.4718 16.5377 96.4158 10.984 106.579C10.984 106.579 -35.2282 196.893 68.2624 281.364C163.937 361.241 251.575 299.633 251.575 299.633C261.586 292.433 306.454 241.783 306.454 241.783C333.907 212.281 347.538 143.418 295.114 77.7495" fill="black"/>
</svg>
