<svg width="66" height="76" viewBox="0 0 66 76" fill="none" xmlns="http://www.w3.org/2000/svg">
<g id="Layer_1" clip-path="url(#clip0_1_1142)">
<g id="Group">
<foreignObject x="-6.5055" y="-6.50501" width="78.6848" height="89.011"><div xmlns="http://www.w3.org/1999/xhtml" style="backdrop-filter:blur(3.25px);clip-path:url(#bgblur_1_1_1142_clip_path);height:100%;width:100%"></div></foreignObject><g id="Vector" filter="url(#filter0_i_1_1142)" data-figma-bg-blur-radius="6.5055">
<path d="M59.0444 0.000488281H6.62954C2.96815 0.000488281 0 2.9593 0 6.60918V69.3918C0 73.0417 2.96815 76.0005 6.62954 76.0005H59.0444C62.7058 76.0005 65.6739 73.0417 65.6739 69.3918V6.60918C65.6739 2.9593 62.7058 0.000488281 59.0444 0.000488281Z" fill="url(#paint0_linear_1_1142)"/>
</g>
<path id="Vector_2" d="M25.0844 13.63V9.42524H23.6016V8.68176H27.4429V9.42524H25.9642V13.63H25.0844ZM27.385 13.63V9.99524H28.24V10.6231H28.2566C28.3681 10.1852 28.6696 9.92089 29.0909 9.92089C29.1983 9.92089 29.2974 9.93742 29.3635 9.95394V10.7263C29.2933 10.6974 29.1611 10.6768 29.0166 10.6768C28.5333 10.6768 28.24 10.9824 28.24 11.5194V13.6259H27.385V13.63ZM30.7885 13.692C30.0616 13.692 29.57 13.2418 29.57 12.5933V12.585C29.57 11.9407 30.0698 11.5524 30.9537 11.4987L31.9037 11.4409V11.1889C31.9037 10.8213 31.6642 10.5983 31.2305 10.5983C30.8257 10.5983 30.5779 10.7883 30.5242 11.0526L30.5159 11.0857H29.7229V11.0444C29.7766 10.4 30.3383 9.91676 31.2594 9.91676C32.1805 9.91676 32.7546 10.3959 32.7546 11.127V13.6259H31.8996V13.0683H31.879C31.6683 13.4483 31.2635 13.6878 30.7844 13.6878L30.7885 13.692ZM30.4209 12.5602C30.4209 12.8576 30.6687 13.0394 31.0405 13.0394C31.532 13.0394 31.8996 12.7131 31.8996 12.2835V12.0109L31.0694 12.0605C30.6481 12.0894 30.4168 12.2711 30.4168 12.5561L30.4209 12.5602ZM34.4109 13.63L33.1263 9.99524H34.035L34.8777 12.837H34.8983L35.7368 9.99524H36.629L35.3485 13.63H34.4109ZM38.4918 13.7002C37.4013 13.7002 36.7446 12.9774 36.7446 11.8209C36.7446 10.6726 37.4137 9.91676 38.4505 9.91676C39.4872 9.91676 40.1357 10.6478 40.1357 11.7424V12.015H37.5913C37.6037 12.6511 37.9548 13.0311 38.5124 13.0311C38.9379 13.0311 39.2146 12.8039 39.2972 12.5602L39.3055 12.5355H40.1026L40.0944 12.5726C39.9829 13.1302 39.4459 13.692 38.4959 13.692L38.4918 13.7002ZM38.4629 10.59C38.0085 10.59 37.6698 10.8957 37.6037 11.4533H39.3096C39.2477 10.875 38.9172 10.59 38.467 10.59H38.4629ZM40.7098 13.63V8.68176H41.5648V13.63H40.7098Z" fill="white"/>
<path id="Vector_3" d="M32.734 47.0879C40.0338 47.0879 45.9514 41.1702 45.9514 33.8705C45.9514 26.5707 40.0338 20.6531 32.734 20.6531C25.4342 20.6531 19.5166 26.5707 19.5166 33.8705C19.5166 41.1702 25.4342 47.0879 32.734 47.0879Z" stroke="#E5E7EB" stroke-width="3.30435"/>
<path id="Vector_4" d="M32.734 20.6531C30.4127 20.6531 28.1368 21.2644 26.1253 22.425C24.1138 23.5857 22.4492 25.2544 21.2886 27.2618C20.1279 29.2692 19.5166 31.5492 19.5166 33.8705C19.5166 36.1918 20.1279 38.4718 21.2886 40.4792" stroke="#F594F7" stroke-width="3.30435" stroke-linecap="round"/>
<path id="Vector_5" d="M32.6305 42.1299C37.1929 42.1299 40.8914 38.4314 40.8914 33.869C40.8914 29.3067 37.1929 25.6082 32.6305 25.6082C28.0681 25.6082 24.3696 29.3067 24.3696 33.869C24.3696 38.4314 28.0681 42.1299 32.6305 42.1299Z" fill="#F594F7"/>
<path id="Vector_6" d="M10.4998 54.8688V56.4631H9.53324V55.8022H8.07106V56.9381H9.66541V57.822H8.07106V58.9579H9.52498V58.3053H10.4956V59.8914H6.35693V58.9579H6.8278V55.7981H6.35693V54.8646H10.4956L10.4998 54.8688ZM13.4035 59.9988C11.9578 59.9988 10.9252 58.9331 10.9252 57.3636C10.9252 55.794 11.8752 54.7655 13.2713 54.7655C13.9528 54.7655 14.5063 55.0092 14.7706 55.4512V54.8688H15.7165V56.7935H14.7045V56.7522C14.7045 56.4301 14.4072 55.8146 13.5604 55.8146C12.7137 55.8146 12.1932 56.4218 12.1932 57.3759C12.1932 58.3301 12.7302 58.9744 13.6595 58.9744C14.3782 58.9744 14.8615 58.5903 14.8904 58.0575H13.5687V57.1983H15.828V59.8955H14.9235V59.3214C14.6674 59.7179 14.1428 60.0029 13.4035 60.0029V59.9988ZM16.3774 54.8688H18.6574C19.9585 54.8688 20.6317 55.4429 20.6317 56.4796C20.6317 57.5164 19.9585 58.0864 18.6574 58.0864H18.0708V58.9579H18.6574V59.8914H16.3774V58.9579H16.8482V55.7981H16.3774V54.8646V54.8688ZM18.0667 57.2025H18.4963C19.1241 57.2025 19.3802 56.9588 19.3802 56.4838C19.3802 56.0088 19.1241 55.7568 18.4963 55.7568H18.0667V57.2025ZM24.4317 59.9988C23.1843 59.9988 22.4698 59.1272 22.4698 57.5453C22.4698 55.9633 23.3495 54.8688 24.7043 54.8688C25.3322 54.8688 25.9476 55.1331 26.3152 55.5627L25.6089 56.2442C25.4024 56.0335 25.0595 55.8931 24.725 55.8931C24.0435 55.8931 23.6428 56.4094 23.6428 57.2355V57.2479C23.808 56.9505 24.2624 56.7316 24.7456 56.7316C25.6832 56.7316 26.3111 57.3801 26.3111 58.3383C26.3111 59.2966 25.5428 59.9988 24.4358 59.9988H24.4317ZM24.4193 59.0075C24.8406 59.0075 25.138 58.7225 25.138 58.3012C25.138 57.8799 24.8489 57.599 24.4193 57.599C23.9898 57.599 23.7006 57.884 23.7006 58.3012C23.7006 58.7183 23.9898 59.0075 24.4193 59.0075ZM28.5663 59.9988C27.7278 59.9988 27.1124 59.6807 26.7613 59.1727L27.4758 58.4994C27.7072 58.8092 28.083 59.0033 28.525 59.0033C29.033 59.0033 29.3511 58.7472 29.3511 58.3301C29.3511 57.9129 29.0661 57.6568 28.6365 57.6568C28.4589 57.6568 28.3061 57.6775 28.1532 57.7766L27.765 57.1488L29.2065 55.9055H27.8311V56.3929H26.9182V54.9803H30.3465V55.8601L29.2437 56.8431C29.9954 56.8968 30.5241 57.504 30.5241 58.3177C30.5241 59.309 29.7104 60.0029 28.5622 60.0029L28.5663 59.9988ZM33.1469 59.9988C31.7839 59.9988 31.1643 58.8835 31.1643 57.4338C31.1643 55.984 31.7839 54.8688 33.1469 54.8688C34.51 54.8688 35.1295 55.984 35.1295 57.4338C35.1295 58.8835 34.51 59.9988 33.1469 59.9988ZM33.1469 58.9662C33.6839 58.9662 33.9276 58.4953 33.9276 57.4338C33.9276 56.3722 33.6839 55.9014 33.1469 55.9014C32.61 55.9014 32.3663 56.3722 32.3663 57.4338C32.3663 58.4953 32.61 58.9662 33.1469 58.9662Z" fill="white"/>
<path id="Vector_7" d="M37.3683 60.3456H36.9883L38.4174 56.9174H38.7974L37.3683 60.3456ZM41.3252 57.0661V57.8715H40.9659V57.4089H39.8589V58.2969H40.9081V58.6439H39.8589V59.5443H40.9659V59.0858H41.3252V59.8871H39.0948V59.5402H39.417V57.4047H39.0948V57.0578H41.3252V57.0661ZM43.1674 59.9491C42.3372 59.9491 41.7755 59.3461 41.7755 58.4663C41.7755 57.5865 42.2918 57.0041 43.1096 57.0041C43.5392 57.0041 43.8944 57.1693 44.0472 57.4461V57.0619H44.3983V58.1482H44.0348V58.1193C44.0348 57.7517 43.7291 57.3924 43.1922 57.3924C42.5809 57.3924 42.2298 57.8384 42.2298 58.4745C42.2298 59.1106 42.5809 59.5732 43.2294 59.5732C43.7663 59.5732 44.1215 59.2552 44.1215 58.8091H43.2872V58.4663H44.4644V59.8913H44.1215V59.503C43.9605 59.7591 43.6218 59.9491 43.1715 59.9491H43.1674ZM44.9765 57.0661H46.1702C46.9013 57.0661 47.2565 57.3676 47.2565 57.9417C47.2565 58.5158 46.9013 58.8174 46.1702 58.8174H45.7407V59.5443H46.1455V59.8913H44.9765V59.5443H45.2987V57.4089H44.9765V57.0619V57.0661ZM45.7407 58.4745H46.1124C46.6122 58.4745 46.8146 58.3011 46.8146 57.9417C46.8146 57.5824 46.6122 57.4089 46.1124 57.4089H45.7407V58.4704V58.4745ZM49.5076 59.9491C49.0946 59.9491 48.7476 59.7839 48.5659 59.5154L48.8178 59.2717C48.9542 59.4617 49.2144 59.5856 49.4952 59.5856C49.8794 59.5856 50.1272 59.3708 50.1272 59.0528C50.1272 58.7347 49.9165 58.5324 49.5902 58.5324C49.4705 58.5324 49.3589 58.5489 49.2805 58.5943L49.1028 58.3134L49.962 57.475H49.0037V57.8095H48.6526V57.128H50.4535V57.4626L49.6811 58.2143H49.7348C50.2139 58.2143 50.5402 58.5571 50.5402 59.0487C50.5402 59.5815 50.1107 59.9532 49.5076 59.9532V59.9491ZM51.1681 60.6182L50.9987 60.4447C51.1144 60.3374 51.2755 60.1515 51.3126 59.9326C51.3002 59.9326 51.2878 59.9326 51.2755 59.9326C51.1309 59.9326 51.0318 59.8211 51.0318 59.6682C51.0318 59.5154 51.1474 59.4039 51.3002 59.4039C51.482 59.4039 51.5935 59.5526 51.5935 59.788C51.5935 60.1184 51.42 60.4117 51.1681 60.6182ZM53.0722 59.9491C52.3411 59.9491 52.0313 59.3254 52.0313 58.5076C52.0313 57.6897 52.3411 57.0661 53.0722 57.0661C53.8033 57.0661 54.1172 57.6897 54.1172 58.5076C54.1172 59.3254 53.8033 59.9491 53.0722 59.9491ZM53.0722 59.5732C53.5265 59.5732 53.6918 59.1561 53.6918 58.5117C53.6918 57.8674 53.5265 57.4502 53.0722 57.4502C52.6178 57.4502 52.4568 57.8715 52.4568 58.5117C52.4568 59.1519 52.6261 59.5732 53.0722 59.5732ZM55.5918 59.9491C54.8607 59.9491 54.5509 59.3254 54.5509 58.5076C54.5509 57.6897 54.8607 57.0661 55.5918 57.0661C56.3228 57.0661 56.6368 57.6897 56.6368 58.5076C56.6368 59.3254 56.3228 59.9491 55.5918 59.9491ZM55.5918 59.5732C56.0461 59.5732 56.2113 59.1561 56.2113 58.5117C56.2113 57.8674 56.0461 57.4502 55.5918 57.4502C55.1374 57.4502 54.9763 57.8715 54.9763 58.5117C54.9763 59.1519 55.1457 59.5732 55.5918 59.5732ZM58.1155 59.9491C57.3844 59.9491 57.0746 59.3254 57.0746 58.5076C57.0746 57.6897 57.3844 57.0661 58.1155 57.0661C58.8465 57.0661 59.1605 57.6897 59.1605 58.5076C59.1605 59.3254 58.8465 59.9491 58.1155 59.9491ZM58.1155 59.5732C58.5698 59.5732 58.735 59.1561 58.735 58.5117C58.735 57.8674 58.5698 57.4502 58.1155 57.4502C57.6611 57.4502 57.5 57.8715 57.5 58.5117C57.5 59.1519 57.6694 59.5732 58.1155 59.5732Z" fill="white" fill-opacity="0.5"/>
<path id="Vector_8" d="M18.2163 66.7771H18.6541C18.6954 67.1529 19.0548 67.4049 19.5504 67.4049C20.0213 67.4049 20.3641 67.1571 20.3641 66.8142C20.3641 66.521 20.1576 66.3392 19.6909 66.2153L19.2448 66.0997C18.6004 65.9344 18.3154 65.6536 18.3154 65.1786C18.3154 64.5962 18.8235 64.1914 19.5504 64.1914C20.2774 64.1914 20.7483 64.6045 20.7689 65.1868H20.3352C20.298 64.811 19.9924 64.5838 19.538 64.5838C19.0837 64.5838 18.7698 64.8192 18.7698 65.1579C18.7698 65.4223 18.9639 65.5792 19.4389 65.7031L19.8024 65.8023C20.5252 65.984 20.8185 66.2608 20.8185 66.7647C20.8185 67.4049 20.3146 67.8014 19.5133 67.8014C18.7739 67.8014 18.2576 67.4007 18.2163 66.7812V66.7771ZM22.0948 67.4255C22.4913 67.4255 22.797 67.1488 22.797 66.7853V66.5788L22.1237 66.6201C21.785 66.6407 21.5909 66.7936 21.5909 67.029C21.5909 67.2644 21.7933 67.4255 22.0948 67.4255ZM21.9998 67.7808C21.5 67.7808 21.1613 67.4792 21.1613 67.0249C21.1613 66.5705 21.4917 66.3227 22.0741 66.2897L22.797 66.2484V66.0377C22.797 65.7321 22.5946 65.5462 22.2435 65.5462C21.9172 65.5462 21.7148 65.699 21.6611 65.9468H21.2563C21.2852 65.5131 21.657 65.1786 22.2517 65.1786C22.8465 65.1786 23.2141 65.4966 23.2141 66.0005V67.7394H22.8135V67.3058H22.8052C22.6565 67.5949 22.3344 67.7808 21.9957 67.7808H21.9998ZM25.8163 65.224L24.8911 67.7394H24.4615L23.5363 65.224H23.9783L24.6722 67.2934H24.6804L25.3785 65.224H25.8163ZM26.1674 67.7394V65.224H26.5887V67.7394H26.1674ZM26.378 64.7986C26.2335 64.7986 26.1178 64.6788 26.1178 64.5384C26.1178 64.3979 26.2376 64.2781 26.378 64.2781C26.5185 64.2781 26.6424 64.3938 26.6424 64.5384C26.6424 64.6829 26.5226 64.7986 26.378 64.7986ZM27.1587 67.7394V65.224H27.5552V65.6247H27.5635C27.7039 65.3521 27.9724 65.1786 28.3607 65.1786C28.9141 65.1786 29.2322 65.5338 29.2322 66.1038V67.7394H28.8109V66.1823C28.8109 65.7775 28.6209 65.5545 28.2326 65.5545C27.8444 65.5545 27.5759 65.8353 27.5759 66.2608V67.7436H27.1546L27.1587 67.7394ZM30.7976 67.3884C31.2354 67.3884 31.5287 67.0249 31.5287 66.4714C31.5287 65.9179 31.2354 65.5503 30.7976 65.5503C30.3598 65.5503 30.0789 65.9097 30.0789 66.4714C30.0789 67.0331 30.3639 67.3884 30.7976 67.3884ZM30.81 68.6894C30.2565 68.6894 29.8187 68.3755 29.7485 67.9501H30.1822C30.2648 68.1814 30.5126 68.3342 30.8307 68.3342C31.2644 68.3342 31.5287 68.0823 31.5287 67.7064V67.3099H31.5204C31.3635 67.5825 31.0661 67.7642 30.715 67.7642C30.0748 67.7642 29.6535 67.2603 29.6535 66.4755C29.6535 65.6908 30.0748 65.1827 30.7274 65.1827C31.0826 65.1827 31.38 65.3562 31.5452 65.6494H31.5535V65.224H31.9541V67.6899C31.9541 68.2888 31.5122 68.6894 30.8183 68.6894H30.81ZM33.5815 64.2451H34.8289C35.4857 64.2451 35.9483 64.7036 35.9483 65.3644C35.9483 66.0253 35.4815 66.4879 34.8248 66.4879H34.0194V67.7353H33.5857V64.241L33.5815 64.2451ZM34.0152 64.6334V66.1038H34.7133C35.2131 66.1038 35.4981 65.8312 35.4981 65.3644C35.4981 64.8977 35.2131 64.6292 34.7133 64.6292H34.0152V64.6334ZM37.303 67.7808C36.605 67.7808 36.1341 67.281 36.1341 66.4797C36.1341 65.6784 36.605 65.1786 37.303 65.1786C38.0011 65.1786 38.4678 65.6784 38.4678 66.4797C38.4678 67.281 37.997 67.7808 37.303 67.7808ZM37.303 67.4131C37.7491 67.4131 38.0383 67.0744 38.0383 66.4797C38.0383 65.8849 37.7491 65.5462 37.303 65.5462C36.857 65.5462 36.5637 65.8849 36.5637 66.4797C36.5637 67.0744 36.857 67.4131 37.303 67.4131ZM40.9833 66.046H40.5702C40.5083 65.7734 40.2976 65.5462 39.9259 65.5462C39.4922 65.5462 39.1948 65.9055 39.1948 66.4797C39.1948 67.0538 39.4963 67.4131 39.93 67.4131C40.2728 67.4131 40.5 67.2314 40.5702 66.9299H40.9833C40.9172 67.4297 40.4959 67.7849 39.9259 67.7849C39.2278 67.7849 38.7652 67.2934 38.7652 66.4838C38.7652 65.6742 39.2278 65.1827 39.9217 65.1827C40.5496 65.1827 40.9254 65.5999 40.9791 66.0501L40.9833 66.046ZM41.8176 66.3392L42.9328 65.2199H43.445L42.3546 66.3062L43.4822 67.7353H42.9948L42.0613 66.5623L41.8259 66.7853V67.7353H41.4046V64.241H41.8259V66.3351L41.8176 66.3392ZM44.6676 65.5462C44.2711 65.5462 43.9985 65.8477 43.9696 66.269H45.3367C45.3285 65.8477 45.0641 65.5462 44.6676 65.5462ZM45.3285 67.0166H45.7415C45.6672 67.4586 45.2417 67.7808 44.6924 67.7808C43.9696 67.7808 43.5317 67.281 43.5317 66.4879C43.5317 65.6949 43.9778 65.1744 44.6717 65.1744C45.3657 65.1744 45.7704 65.666 45.7704 66.4301V66.5912H43.9654V66.616C43.9654 67.0992 44.2504 67.4131 44.7007 67.4131C45.0187 67.4131 45.2541 67.2521 45.3244 67.0125L45.3285 67.0166ZM46.3363 64.6168H46.7576V65.224H47.245V65.571H46.7576V67.0662C46.7576 67.2975 46.8526 67.4007 47.0715 67.4007C47.1211 67.4007 47.2161 67.3925 47.245 67.3884V67.7394C47.1954 67.7518 47.0798 67.7601 46.9765 67.7601C46.5139 67.7601 46.3363 67.5701 46.3363 67.0868V65.571H45.9604V65.224H46.3363V64.6168Z" fill="white" fill-opacity="0.5"/>
</g>
</g>
<defs>
<filter id="filter0_i_1_1142" x="-6.5055" y="-6.50501" width="78.6848" height="89.011" filterUnits="userSpaceOnUse" color-interpolation-filters="sRGB">
<feFlood flood-opacity="0" result="BackgroundImageFix"/>
<feBlend mode="normal" in="SourceGraphic" in2="BackgroundImageFix" result="shape"/>
<feColorMatrix in="SourceAlpha" type="matrix" values="0 0 0 0 0 0 0 0 0 0 0 0 0 0 0 0 0 0 127 0" result="hardAlpha"/>
<feOffset/>
<feGaussianBlur stdDeviation="3.9033"/>
<feComposite in2="hardAlpha" operator="arithmetic" k2="-1" k3="1"/>
<feColorMatrix type="matrix" values="0 0 0 0 0.858333 0 0 0 0 0.95841 0 0 0 0 1 0 0 0 1 0"/>
<feBlend mode="normal" in2="shape" result="effect1_innerShadow_1_1142"/>
</filter>
<clipPath id="bgblur_1_1_1142_clip_path" transform="translate(6.5055 6.50501)"><path d="M59.0444 0.000488281H6.62954C2.96815 0.000488281 0 2.9593 0 6.60918V69.3918C0 73.0417 2.96815 76.0005 6.62954 76.0005H59.0444C62.7058 76.0005 65.6739 73.0417 65.6739 69.3918V6.60918C65.6739 2.9593 62.7058 0.000488281 59.0444 0.000488281Z"/>
</clipPath><linearGradient id="paint0_linear_1_1142" x1="11.8778" y1="8.0197" x2="74.1281" y2="73.6819" gradientUnits="userSpaceOnUse">
<stop stop-color="#EFF1FF" stop-opacity="0.5"/>
<stop offset="1" stop-color="white" stop-opacity="0"/>
</linearGradient>
<clipPath id="clip0_1_1142">
<rect width="65.4674" height="76" fill="white"/>
</clipPath>
</defs>
</svg>
