<svg width="166" height="209" viewBox="0 0 166 209" fill="none" xmlns="http://www.w3.org/2000/svg">
<g clip-path="url(#clip0_1_27)">
<path d="M26.0133 184.134C24.3543 183.689 22.9653 182.556 22.198 181.015C21.4288 179.481 21.3589 177.685 22.0024 176.094L28.4155 160.187C28.4804 159.684 28.6143 159.184 28.8115 158.709L36.4506 140.11C36.5456 139.872 36.6623 139.639 36.7843 139.415L38.2046 135.883C16.6878 110.155 31.1487 76.1226 31.7959 74.6345C32.3351 73.4046 33.2692 72.3815 34.455 71.752C34.6001 71.6744 37.1298 70.3179 40.2728 68.8462C39.8526 58.6785 39.9521 47.035 39.9704 45.4016C39.7555 40.5533 39.3169 18.2834 48.4055 8.79233C51.2832 5.78982 54.9066 4.20615 58.8942 4.21865C60.717 4.22566 62.4526 4.44224 64.0463 4.8693C76.1953 8.12459 77.1777 21.642 75.9648 28.7476L74.9891 51.6013C79.368 49.6611 84.3758 49.3724 88.3458 50.4361C89.4687 50.737 90.4697 51.145 91.3363 51.6489C95.0691 53.8294 97.7546 57.6004 99.0946 62.1911C101.713 61.7203 104.522 61.844 107.383 62.6107C109.716 63.2358 111.826 64.2592 113.335 65.4944C116.513 68.093 118.492 71.9231 119.229 76.2435C119.59 75.9676 119.949 75.699 120.308 75.4303C131.961 66.7428 136.47 65.8544 139.612 66.1838C140.36 66.2601 141.107 66.3982 141.824 66.5904C147.04 67.988 150.965 72.2929 152.06 77.8274C153.122 83.1666 151.289 88.3826 147.294 91.4427C141.696 95.7275 134.939 101.736 126.651 109.803C124.13 112.257 122.355 114.825 122.34 114.852C122.289 114.924 122.237 115.003 122.179 115.073C121.286 116.262 120.649 118.204 119.849 120.668C119.111 122.931 118.276 125.495 116.952 128.409C112.757 137.604 102.905 143.886 97.9626 146.568L87.8438 194.156C87.4984 195.764 86.5106 197.161 85.1061 198.027C83.7036 198.885 82.0076 199.13 80.421 198.705L26.0152 184.127L26.0133 184.134Z" fill="#FCFEE6"/>
<path d="M68.9653 69.5617L70.7259 28.2756C70.7259 28.2756 74.1513 10.4497 59.6197 10.4072C45.0769 10.3773 46.7093 45.4912 46.7093 45.4912C46.7093 45.4912 46.4599 67.0254 47.6008 77.7201" fill="#77BF46"/>
<path d="M68.9653 69.5617L70.7259 28.2756C70.7259 28.2756 74.1513 10.4497 59.6197 10.4072C45.0769 10.3773 46.7093 45.4912 46.7093 45.4912C46.7093 45.4912 46.4599 67.0254 47.6008 77.7201" stroke="black" stroke-width="1.5" stroke-miterlimit="10"/>
<path d="M78.6148 142.013L50.4381 119.726L38.0342 77.2299L106.03 82.1796L78.6148 142.013Z" fill="#77BF46"/>
<path d="M38.0342 77.2305C38.0342 77.2305 23.0992 111.438 45.912 134.85L45.8515 134.989L28.3052 178.537L82.7037 193.113L93.4192 142.719C93.4192 142.719 107.609 136.241 112.222 126.125C115.012 120.001 115.509 115.134 118.112 111.677C118.112 111.677 120.162 108.663 123.196 105.718C132.049 97.103 138.883 91.0998 144.383 86.8897C149.433 83.025 147.159 73.1372 139.728 72.3573C134.004 71.7552 114.885 87.9926 110.741 91.9835" fill="#77BF46"/>
<path d="M38.0342 77.2305C38.0342 77.2305 23.0992 111.438 45.912 134.85L45.8515 134.989L28.3052 178.537L82.7037 193.113L93.4192 142.719C93.4192 142.719 107.609 136.241 112.222 126.125C115.012 120.001 115.509 115.134 118.112 111.677C118.112 111.677 120.162 108.663 123.196 105.718C132.049 97.103 138.883 91.0998 144.383 86.8897C149.433 83.025 147.159 73.1372 139.728 72.3573C134.004 71.7552 114.885 87.9926 110.741 91.9835" stroke="black" stroke-width="1.5" stroke-miterlimit="10"/>
<path d="M91.9244 80.9238C87.3421 89.3318 82.3118 95.0652 78.3847 99.782C73.728 105.367 78.7607 115.823 87.2536 114.815C93.7887 114.042 107.17 97.3391 110.787 91.8402C115.649 84.4466 115.377 74.5051 110.281 70.3442C107.695 68.2304 99.3099 65.9371 94.4716 72.2578L92.6896 78.9082L91.9225 80.931L91.9244 80.9238Z" fill="#77BF46" stroke="black" stroke-width="1.5" stroke-miterlimit="10"/>
<path d="M99.1608 101.614C99.1608 101.614 94.6635 108.43 90.9036 110.668C87.1457 112.899 83.1986 111.663 81.4575 110.047C79.7163 108.432 77.8087 104.597 80.3755 100.611C82.9441 96.6169 89.5103 92.483 89.5103 92.483C93.7981 94.0124 97.1132 96.9117 99.1535 101.612L99.1608 101.614Z" fill="#F8E84D" stroke="black" stroke-width="0.75" stroke-miterlimit="10"/>
<path d="M70.7812 65.6535L70.1965 69.3714L69.1197 73.7959C65.9024 82.8182 65.279 85.8113 62.1339 91.087C58.403 97.3317 65.0084 106.874 73.2377 104.56C79.5696 102.778 90.1866 84.1927 92.8964 78.1947C96.5468 70.1348 94.7246 60.3601 89.0461 57.0372C86.1654 55.3569 77.1844 55.2022 73.2493 61.3688L71.5708 63.9239L70.8312 65.4961C70.8103 65.5448 70.7876 65.6009 70.7885 65.6555L70.7812 65.6535Z" fill="#77BF46" stroke="black" stroke-width="1.5" stroke-miterlimit="10"/>
<path d="M82.9427 89.6676C82.9427 89.6676 79.5612 97.1006 76.2031 99.8968C72.8449 102.693 68.7455 102.084 66.7793 100.757C64.8132 99.4305 62.323 95.9447 64.2409 91.5979C66.1587 87.2512 71.999 82.1463 71.999 82.1463C76.4711 82.9875 80.1975 85.337 82.9447 89.6603L82.9427 89.6676Z" fill="#F8E84D" stroke="black" stroke-width="0.75" stroke-miterlimit="10"/>
<path d="M65.9319 117.076C65.9319 117.076 71.2445 98.6691 59.4388 91.2352C59.4388 91.2352 90.82 101.041 89.0396 83.3736C87.2592 65.7058 54.9855 70.1258 50.0292 71.7871C45.0728 73.4485 38.0433 77.2253 38.0433 77.2253" fill="#77BF46"/>
<path d="M65.9319 117.076C65.9319 117.076 71.2445 98.6691 59.4388 91.2352C59.4388 91.2352 90.82 101.041 89.0396 83.3736C87.2592 65.7058 54.9855 70.1258 50.0292 71.7871C45.0728 73.4485 38.0433 77.2253 38.0433 77.2253" stroke="black" stroke-width="1.5" stroke-miterlimit="10"/>
<path d="M66.064 70.0735C79.7485 70.7276 84.905 75.0133 87.1115 78.1668C87.9767 79.4003 87.8084 80.7528 84.329 82.0023C80.8495 83.2518 69.1741 83.2137 67.8158 81.0095C64.7857 76.0902 66.064 70.0735 66.064 70.0735Z" fill="#F8E84D" stroke="black" stroke-width="0.75" stroke-miterlimit="10"/>
<path d="M86.5618 174.975L35.0973 161.186L42.7364 142.586L90.6571 155.722L86.5618 174.975Z" fill="#FFED33" stroke="black" stroke-width="1.5" stroke-miterlimit="10"/>
<path d="M71.6099 166.823C73.1303 167.23 75.185 164.492 76.1991 160.707C77.2133 156.922 76.8029 153.524 75.2826 153.116C73.7622 152.709 71.7075 155.447 70.6933 159.232C69.6792 163.017 70.0895 166.415 71.6099 166.823Z" fill="black"/>
<path d="M52.1224 161.601C53.6427 162.009 55.6974 159.271 56.7116 155.486C57.7257 151.701 57.3154 148.302 55.795 147.895C54.2746 147.487 52.22 150.226 51.2058 154.01C50.1916 157.795 50.602 161.194 52.1224 161.601Z" fill="black"/>
<path d="M56.6361 160.404C56.6361 160.404 56.5397 163.429 61.705 164.814C66.8703 166.198 67.8288 163.403 67.8288 163.403" fill="black"/>
</g>
<defs>
<clipPath id="clip0_1_27">
<rect width="122.325" height="183" fill="white" transform="translate(47.7389 0.5) rotate(15)"/>
</clipPath>
</defs>
</svg>
