<svg width="104" height="79" viewBox="0 0 104 79" fill="none" xmlns="http://www.w3.org/2000/svg">
<g clip-path="url(#clip0_1_2191)">
<path d="M87.6592 75.6625L82.6078 69.8784C81.5518 70.3801 70.7559 74.9899 65.8641 68.0497C59.9418 59.7244 68.731 48.4033 72.0586 45.5385C74.2432 43.4626 78.1697 40.8814 82.488 39.5944C87.739 38.0275 92.0683 38.7801 95.3089 42.9028C100.919 50.7846 93.7122 58.0884 93.7122 58.0884L98.974 64.1597C106.638 55.6162 104.203 42.2847 100.473 38.3547C100.473 38.3547 92.6453 30.502 91.1792 29.3168C91.1792 29.3168 78.0572 19.3264 61.593 33.4868C46.0868 46.531 53.4316 62.3347 53.4316 62.3347C54.2989 64.1452 61.1139 72.7832 61.1139 72.7832C65.0477 78.0256 75.6657 82.181 87.6664 75.6625" fill="black"/>
<path d="M47.8288 12.0006L43.035 18.0029C43.7136 18.9554 50.144 28.7895 44.1818 34.8354C36.895 41.961 24.3717 35.4643 20.9715 32.6904C18.5474 30.9017 15.3177 27.4807 13.2964 23.4525C10.8324 18.5482 10.807 14.1492 14.2907 10.2265C21.0477 3.30445 29.4957 9.12856 29.4957 9.12856L34.5362 2.87182C24.7927 -3.18497 12.1206 1.56303 8.91634 5.93293C8.91634 5.93293 2.57669 15.0363 1.6731 16.6905C1.6731 16.6905 -5.83504 31.3889 10.9775 45.1348C26.52 58.1318 40.7597 48.1087 40.7597 48.1087C42.3855 46.9344 49.6723 38.6963 49.6723 38.6963C54.1322 33.8974 56.3458 22.6891 47.8288 12.0043" fill="black"/>
</g>
<defs>
<clipPath id="clip0_1_2191">
<rect width="104" height="79" fill="white"/>
</clipPath>
</defs>
</svg>
