<svg width="61" height="89" viewBox="0 0 61 89" fill="none" xmlns="http://www.w3.org/2000/svg">
<g clip-path="url(#clip0_1_649)">
<path d="M58.2414 31.0287L62.7511 30.5276L68.5714 30.1421L71.7321 30.4119L72.927 30.8745L73.9291 31.5297L75.1626 33.033L75.8564 35.0759V37.5042L75.5866 38.3522L75.0084 39.2773L72.8113 41.3972L45.483 63.4449L18.0005 85.2999L15.2638 87.1886L13.2595 87.998L12.1031 88.0366L10.9853 87.7668L8.94242 86.4948L8.13298 85.6083L7.5548 84.529L7.24644 83.5268L7.2079 82.4476L7.51626 81.1756L18.8485 53.7702L18.8099 53.3076L18.463 53.0763H18.3474L9.32787 53.8087L6.51409 53.8472L4.35558 53.6545L2.58251 53.0378L1.34907 52.1127L0.501084 50.8022L0 48.9906L0.0770898 46.9092L0.847988 44.2881L14.994 8.24861L16.4972 5.6661L18.4245 3.81595L20.3903 2.92941L22.6644 2.50542L64.6013 0L67.9161 0.192725L69.1496 0.616719L70.0747 1.27198L71.3466 2.92941L71.7706 4.16285L71.9634 5.55047L71.5779 7.28499L70.4601 9.52059L57.9715 29.6025L57.6632 30.5276V30.5661L57.8559 30.913L58.2414 31.0287Z" fill="#FEFEFE"/>
<path d="M23.8984 49.1062H23.9755L24.2839 49.3375L24.3224 49.723L11.6026 80.4047L11.14 82.2549L11.2171 83.7967L11.4484 84.2977L11.9109 84.6832L12.4506 84.8374L12.9902 84.7217L13.26 84.5676L69.8825 39.2002L72.2723 36.849L72.7348 35.9239V35.1915L72.2723 34.6133L71.3087 34.1894L67.9938 33.881L60.3619 34.1894L51.3039 34.9988L50.9184 34.8446L50.8028 34.4206L50.8413 34.2664L68.2636 6.47556L68.5334 5.78175L68.4949 5.01085L68.1865 4.35559L67.6084 3.85451L67.5698 3.81596L66.2978 3.46906L64.5248 3.39197L23.1275 6.01302L21.5857 6.32138L20.1981 7.05373L19.0803 8.13299L18.3094 9.44352L3.46961 47.6415L3.31543 48.5281L3.58524 49.3761L4.20196 50.0313L5.01141 50.3397L5.4354 50.3782L23.8984 49.1062Z" fill="#FFEC00"/>
<path d="M23.8984 49.1063L5.47394 50.3782L5.04995 50.3397L4.20196 50.0313L3.58524 49.3761L3.31543 48.5281L3.43106 47.6416L18.2709 9.44355L19.0418 8.13302L20.1596 7.05376L21.5472 6.32141L23.089 6.01305L64.4862 3.43054L66.2978 3.46909L67.5698 3.85454L67.6469 3.89308L68.1865 4.35562L68.4949 5.01088L68.5334 5.74324L68.2636 6.43705L50.8413 34.2665L50.7642 34.4207L50.8799 34.8446L51.2653 34.9988L60.3234 34.1894L67.9552 33.9196L71.2701 34.2279L72.2337 34.6519L72.6963 35.2301V35.9625L72.2337 36.8875L69.8439 39.2388L13.26 84.5676L12.9902 84.7218L12.4506 84.8374L11.9109 84.6832L11.487 84.2978L11.2557 83.7967L11.1786 82.2549L11.6411 80.4047L24.361 49.723L24.3224 49.3375L24.014 49.1063H23.8984Z" stroke="black" stroke-width="1.5418" stroke-miterlimit="10"/>
<path d="M28.7163 11.8718C29.3976 11.8718 29.9498 11.3196 29.9498 10.6383C29.9498 9.95714 29.3976 9.40491 28.7163 9.40491C28.0351 9.40491 27.4829 9.95714 27.4829 10.6383C27.4829 11.3196 28.0351 11.8718 28.7163 11.8718Z" fill="#5CDA50"/>
<path d="M57.8172 10.9082L57.8943 10.253L57.3932 9.82897L57.1619 9.79042L35.2684 11.2937L34.7288 11.1395L34.4975 10.5999L34.459 10.0988L34.6903 9.28934L35.4612 8.98098L60.7466 7.24646L61.6331 7.63191L61.8644 8.59553L61.7488 8.90389L54.3482 20.7372L53.6929 21.1612L52.8835 20.9685L52.6907 20.1205L53.1533 18.6558L53.4231 18.0776L53.8856 17.2296L57.8172 10.9082Z" fill="#5CDA50"/>
</g>
<defs>
<clipPath id="clip0_1_649">
<rect width="75.8564" height="88.0366" fill="white"/>
</clipPath>
</defs>
</svg>
