<svg width="539" height="87" viewBox="0 0 539 87" fill="none" xmlns="http://www.w3.org/2000/svg">
<g clip-path="url(#clip0_1_10295)">
<path d="M69.5582 29.1493H52.34V81.4052H35.1218V29.1493H17.9092V20.4409H69.5526V29.1493H69.5582Z" fill="black"/>
<path d="M133.078 81.4106H115.86V63.9882H90.0356V81.4106H72.8174V37.8631H81.4237V29.1547H90.03V20.4463H115.855V29.1547H124.461V37.8631H133.067V81.4106H133.078ZM115.866 55.2798V37.8631H107.259V29.1547H98.6529V37.8631H90.0466V55.2798H115.871H115.866Z" fill="black"/>
<path d="M196.598 81.4108H170.774V72.7024H162.168V63.994H153.561V81.4164H136.349V20.4409H153.561V46.5717H162.168V37.8633H170.774V29.1549H179.38V20.4465H196.598V29.1549H187.992V37.8633H179.386V46.5717H170.779V55.28H179.386V63.9884H187.992V72.6968H196.598V81.4052V81.4108Z" fill="black"/>
<path d="M260.123 81.4108H199.868V20.4409H260.123V29.1493H217.086V46.5717H251.517V55.28H217.086V72.7024H260.123V81.4108Z" fill="black"/>
<path d="M65.691 20.2062H48.4728V72.4621H31.2546V20.2062H14.042V11.4978H65.6855V20.2062H65.691Z" fill="#FFED33" stroke="#231F20" stroke-width="1.30771" stroke-miterlimit="10"/>
<path d="M129.211 72.4674H111.993V55.0451H86.1684V72.4674H68.9502V28.9199H77.5565V20.2116H86.1628V11.5032H111.987V20.2116H120.594V28.9199H129.2V72.4674H129.211ZM111.998 46.3367V28.9199H103.392V20.2116H94.7857V28.9199H86.1794V46.3367H112.004H111.998Z" fill="#FFED33" stroke="#231F20" stroke-width="1.30771" stroke-miterlimit="10"/>
<path d="M192.731 72.4677H166.907V63.7593H158.3V55.0509H149.694V72.4733H132.481V11.4978H149.694V37.6285H158.3V28.9202H166.907V20.2118H175.513V11.5034H192.731V20.2118H184.125V28.9202H175.519V37.6285H166.912V46.3369H175.519V55.0453H184.125V63.7537H192.731V72.4621V72.4677Z" fill="#FFED33" stroke="#231F20" stroke-width="1.30771" stroke-miterlimit="10"/>
<path d="M256.256 72.4677H196.001V11.4978H256.256V20.2062H213.219V37.6285H247.65V46.3369H213.219V63.7593H256.256V72.4677Z" fill="#FFED33" stroke="#231F20" stroke-width="1.30771" stroke-miterlimit="10"/>
<path d="M57.1724 15.4884H39.9598V67.7443H22.7416V15.4884H5.52344V6.78003H57.1669V15.4884H57.1724Z" fill="#5CDA50" stroke="#231F20" stroke-width="1.30771" stroke-miterlimit="10"/>
<path d="M120.693 67.7446H103.475V50.3278H77.6502V67.7446H60.4375V24.197H69.0438V15.4887H77.6502V6.78027H103.475V15.4887H112.081V24.197H120.687V67.7446H120.693ZM103.48 41.6138V24.197H94.8738V15.4887H86.2675V24.197H77.6612V41.6138H103.486H103.48Z" fill="#5CDA50" stroke="#231F20" stroke-width="1.30771" stroke-miterlimit="10"/>
<path d="M184.212 67.7448H158.388V59.0364H149.782V50.328H141.175V67.7448H123.957V6.7749H141.175V32.9056H149.782V24.1973H158.388V15.4889H166.994V6.78049H184.207V15.4889H175.601V24.1973H166.994V32.9056H158.388V41.614H166.994V50.3224H175.601V59.0308H184.207V67.7392L184.212 67.7448Z" fill="#5CDA50" stroke="#231F20" stroke-width="1.30771" stroke-miterlimit="10"/>
<path d="M247.738 67.7448H187.482V6.7749H247.738V15.4833H204.701V32.9001H239.131V41.6084H204.701V59.0308H247.738V67.7392V67.7448Z" fill="#5CDA50" stroke="#231F20" stroke-width="1.30771" stroke-miterlimit="10"/>
<path d="M347.219 52.2444H338.613V60.9528H304.182V78.3696H286.964V17.4053H338.607V26.1137H347.214V52.2444H347.219ZM330.001 52.2444V26.1137H304.177V52.2444H330.001Z" fill="black"/>
<path d="M410.739 78.3749H393.526V60.9582H367.702V78.3749H350.489V34.8274H359.096V26.119H367.702V17.4106H393.526V26.119H402.133V34.8274H410.739V78.3749ZM393.526 52.2442V34.8218H384.92V26.1134H376.314V34.8218H367.707V52.2442H393.532H393.526Z" fill="black"/>
<path d="M474.259 78.3752H448.435V69.6668H439.828V60.9584H431.222V78.3752H414.004V17.4053H465.647V26.1137H474.254V52.2444H457.041V60.9528H465.647V69.6612H474.254V78.3696L474.259 78.3752ZM457.047 43.536V26.1192H431.222V52.25H448.44V43.5416H457.047V43.536Z" fill="black"/>
<path d="M533.481 26.119H516.263V78.3749H499.051V26.119H481.838V17.4106H533.481V26.119Z" fill="black"/>
<path d="M341.706 45.3862H333.099V54.0946H298.668V71.5114H281.45V10.5471H333.094V19.2555H341.7V45.3862H341.706ZM324.493 45.3862V19.2555H298.668V45.3862H324.493Z" fill="#FFED33" stroke="#231F20" stroke-width="1.30771" stroke-miterlimit="10"/>
<path d="M405.231 71.5168H388.019V54.1H362.194V71.5168H344.981V27.9693H353.588V19.2609H362.194V10.5525H388.019V19.2609H396.625V27.9693H405.231V71.5168ZM388.013 45.386V27.9637H379.407V19.2553H370.8V27.9637H362.194V45.386H388.019H388.013Z" fill="#FFED33" stroke="#231F20" stroke-width="1.30771" stroke-miterlimit="10"/>
<path d="M468.751 71.517H442.927V62.8086H434.321V54.1002H425.714V71.517H408.496V10.5471H460.14V19.2555H468.746V45.3862H451.533V54.0946H460.14V62.803H468.746V71.5114L468.751 71.517ZM451.539 36.6779V19.2611H425.714V45.3918H442.927V36.6834H451.533L451.539 36.6779Z" fill="#FFED33" stroke="#231F20" stroke-width="1.30771" stroke-miterlimit="10"/>
<path d="M527.967 19.2555H510.749V71.5114H493.531V19.2555H476.318V10.5471H527.962V19.2555H527.967Z" fill="#FFED33" stroke="#231F20" stroke-width="1.30771" stroke-miterlimit="10"/>
<path d="M336.199 40.4285H327.593V49.1369H293.162V66.5536H275.949V5.58936H327.593V14.2977H336.199V40.4285ZM318.986 40.4285V14.2977H293.162V40.4285H318.986Z" fill="#5CDA50" stroke="#231F20" stroke-width="1.30771" stroke-miterlimit="10"/>
<path d="M399.725 66.5592H382.512V49.1425H356.688V66.5592H339.47V23.0061H348.076V14.2977H356.682V5.58936H382.507V14.2977H391.113V23.0061H399.72V66.5536L399.725 66.5592ZM382.507 40.4285V23.0061H373.901V14.2977H365.294V23.0061H356.688V40.4285H382.512H382.507Z" fill="#5CDA50" stroke="#231F20" stroke-width="1.30771" stroke-miterlimit="10"/>
<path d="M463.245 66.5592H437.42V57.8508H428.814V49.1425H420.208V66.5592H402.995V5.58936H454.639V14.2977H463.245V40.4285H446.032V49.1369H454.639V57.8453H463.245V66.5536V66.5592ZM446.032 31.7201V14.3033H420.208V40.4341H437.426V31.7257H446.032V31.7201Z" fill="#5CDA50" stroke="#231F20" stroke-width="1.30771" stroke-miterlimit="10"/>
<path d="M522.461 14.2977H505.248V66.5536H488.036V14.2977H470.817V5.58936H522.461V14.2977Z" fill="#5CDA50" stroke="#231F20" stroke-width="1.30771" stroke-miterlimit="10"/>
</g>
<defs>
<clipPath id="clip0_1_10295">
<rect width="539" height="87" fill="white"/>
</clipPath>
</defs>
</svg>
