<svg width="268" height="269" viewBox="0 0 268 269" fill="none" xmlns="http://www.w3.org/2000/svg">
<path d="M224.743 91.5198L28.2151 130.723C23.8529 131.59 21.0175 135.831 21.8806 140.189L34.3168 202.794C35.1799 207.152 39.4194 209.981 43.7816 209.113L75.2149 202.839C81.3198 212.527 94.3384 225.233 119.718 221.201C119.718 221.201 109.497 218.407 102.519 197.397L240.3 169.915C244.662 169.048 247.497 164.807 246.634 160.449L234.198 97.8438C233.335 93.4857 229.095 90.6574 224.733 91.5253L224.743 91.5198Z" fill="#6E5CA8"/>
<path d="M215.352 23.6302L202.342 50.3862C212.132 63.1698 216.085 80.2572 211.576 97.0847C203.898 125.74 174.608 142.792 146.158 135.168C117.708 127.545 100.868 98.1337 108.547 69.4781C116.225 40.8224 145.514 23.7712 173.964 31.3943C179.128 32.7779 183.899 34.8824 188.223 37.5697L215.352 23.6302Z" fill="#F9EF14"/>
</svg>
